<?xml version="1.0" standalone="no"?>
<!DOCTYPE svg PUBLIC "-//W3C//DTD SVG 20010904//EN"
 "http://www.w3.org/TR/2001/REC-SVG-20010904/DTD/svg10.dtd">
<svg version="1.0" xmlns="http://www.w3.org/2000/svg"
 width="2042.000000pt" height="1126.000000pt" viewBox="0 0 2042.000000 1126.000000"
 preserveAspectRatio="xMidYMid meet">

<g transform="translate(0.000000,1126.000000) scale(0.100000,-0.100000)"
fill="#000000" stroke="none">
<path d="M16930 11200 c-52 -33 -104 -64 -115 -70 -11 -6 -92 -55 -180 -110
-88 -55 -220 -137 -293 -183 -73 -45 -144 -89 -157 -97 -13 -8 -99 -62 -192
-118 -92 -57 -235 -146 -318 -198 -82 -52 -159 -98 -170 -104 -11 -6 -46 -27
-77 -48 -32 -20 -108 -68 -170 -106 -62 -38 -193 -119 -291 -180 -97 -61 -188
-118 -202 -126 -32 -20 -239 -148 -395 -245 -151 -94 -515 -319 -625 -387 -44
-27 -181 -112 -305 -189 -192 -119 -333 -206 -436 -269 -116 -72 -710 -441
-749 -466 -44 -28 -302 -187 -563 -348 -46 -28 -94 -58 -107 -66 -14 -8 -126
-78 -251 -155 -125 -77 -257 -159 -293 -182 -36 -24 -73 -46 -81 -50 -84 -40
-261 -210 -332 -318 -57 -88 -100 -186 -129 -295 -43 -159 -28 -422 32 -554
12 -25 20 -25 94 3 54 21 125 41 143 41 12 0 23 4 26 9 3 5 30 12 61 16 30 3
57 11 60 16 4 5 21 9 39 9 18 0 55 7 82 15 27 8 63 15 81 15 17 0 34 4 37 9 4
5 44 12 91 16 47 4 88 11 91 16 3 5 26 9 52 9 26 1 76 7 112 15 36 8 86 14
112 15 26 0 49 4 52 9 4 5 56 13 116 16 61 4 110 11 110 15 0 4 28 10 63 13
56 5 96 13 240 47 27 7 60 19 75 27 27 15 27 15 -14 9 -38 -5 -42 -4 -48 18
-3 14 -3 31 0 40 5 14 8 14 21 1 16 -17 33 -20 33 -6 0 4 24 4 53 0 54 -9 87
-4 87 12 0 5 6 9 13 9 6 0 28 15 48 33 20 17 72 64 115 103 43 39 97 86 119
105 22 19 41 37 43 42 2 4 8 7 14 7 5 0 28 18 50 40 23 22 45 40 49 40 5 0 22
14 39 30 17 17 35 30 40 30 4 0 10 4 12 8 2 4 23 23 48 42 24 19 53 43 64 52
11 10 27 20 37 23 9 3 20 12 23 20 3 8 12 15 21 15 8 0 15 3 15 8 0 4 23 23
50 42 27 19 50 38 50 43 0 4 6 7 14 7 8 0 21 6 28 13 8 6 21 17 29 22 9 6 47
31 85 56 142 95 331 191 402 205 17 4 32 10 32 15 0 5 14 9 30 9 40 0 38 -16
-3 -24 -18 -3 -39 -15 -47 -26 -7 -10 -16 -17 -20 -15 -10 6 -100 -16 -100
-26 0 -5 -7 -9 -15 -9 -8 0 -15 -4 -15 -9 0 -10 68 5 85 19 6 5 34 12 63 16
28 3 57 12 63 20 14 17 79 47 149 69 30 10 63 21 72 26 10 5 29 9 43 9 14 0
41 7 60 14 22 10 35 11 35 4 0 -6 11 -8 28 -5 61 13 212 38 282 47 41 6 125
17 185 26 199 28 482 53 617 55 59 1 108 5 108 10 0 5 55 9 123 9 67 0 201 5
297 10 191 11 854 15 870 5 6 -4 4 -12 -5 -21 -22 -22 -19 -36 7 -28 12 4 47
10 78 14 117 17 195 32 204 41 6 5 0 9 -15 10 -55 2 38 19 126 24 71 3 80 2
40 -4 -109 -19 -140 -50 -52 -53 28 -1 72 -3 97 -4 94 -3 367 -25 425 -34 33
-4 88 -9 123 -9 34 -1 62 -5 62 -10 0 -4 46 -11 103 -15 56 -4 116 -11 132
-16 17 -5 71 -14 120 -21 168 -22 291 -42 360 -58 22 -5 78 -17 125 -26 47 -9
101 -21 120 -26 19 -5 78 -18 130 -28 53 -10 106 -23 117 -30 12 -6 31 -11 41
-11 11 0 78 -19 149 -41 139 -45 173 -68 173 -120 0 -17 5 -50 11 -74 6 -25 8
-53 4 -62 -6 -16 -9 -16 -28 7 -21 23 -114 97 -146 115 -15 9 -78 25 -191 51
-36 8 -83 19 -105 24 -146 33 -333 70 -385 76 -25 3 -56 10 -70 15 -14 5 -49
11 -78 13 -49 3 -55 7 -70 37 -9 18 -26 37 -37 43 -11 6 -22 14 -26 18 -3 5
-27 10 -55 13 -27 2 -40 2 -29 -1 28 -6 126 -56 121 -61 -6 -7 -56 9 -56 17 0
4 -26 11 -57 14 -32 4 -80 11 -108 16 -27 5 -113 16 -190 25 -77 9 -178 20
-225 25 -222 26 -551 21 -693 -9 -82 -18 -158 -61 -229 -132 -38 -37 -68 -70
-68 -73 0 -3 -18 -35 -40 -71 -22 -36 -40 -69 -40 -74 0 -11 -32 -74 -41 -81
-4 -3 -10 -20 -14 -37 -3 -18 -11 -33 -16 -33 -5 0 -9 -9 -9 -19 0 -11 -4 -22
-9 -26 -5 -3 -12 -19 -16 -35 -4 -17 -10 -30 -15 -30 -4 0 -10 -18 -14 -40 -3
-22 -11 -40 -16 -40 -6 0 -10 -9 -10 -19 0 -11 -4 -22 -10 -26 -19 -12 2 -37
26 -31 31 8 37 -6 19 -40 -8 -16 -15 -35 -15 -42 0 -7 -4 -20 -9 -30 -9 -17
-30 -86 -49 -157 -6 -22 -14 -93 -17 -157 l-6 -117 29 -32 c24 -27 37 -33 85
-37 51 -4 57 -2 57 15 0 25 38 57 53 45 7 -5 85 -15 174 -22 153 -12 330 -6
458 16 17 3 107 12 200 20 94 8 217 19 275 24 58 5 191 14 295 20 105 6 206
15 225 20 19 5 101 12 181 15 81 4 164 11 185 16 22 4 58 9 82 9 24 0 42 5 42
11 0 9 -19 10 -67 4 -79 -9 -206 -19 -493 -39 -113 -8 -219 -18 -236 -21 -23
-5 -33 -3 -37 8 -6 16 6 17 313 37 85 5 198 14 250 20 52 5 123 10 156 10 34
0 79 7 99 16 36 15 74 49 75 68 0 5 11 19 25 32 14 13 25 26 25 29 0 7 7 16
46 60 25 29 28 30 134 33 60 2 140 -2 177 -8 37 -7 93 -16 123 -20 30 -5 87
-16 125 -25 39 -9 95 -21 125 -27 30 -6 59 -14 64 -19 6 -5 22 -9 37 -9 15 0
31 -5 34 -10 4 -6 10 -8 15 -5 5 3 19 -9 31 -27 13 -18 26 -35 29 -38 3 -3 14
-22 24 -42 11 -21 23 -38 28 -38 4 0 8 -7 8 -15 0 -8 9 -23 20 -32 11 -10 20
-26 20 -35 0 -15 -5 -17 -27 -11 -16 4 -46 8 -68 8 -36 0 -40 -3 -43 -26 -2
-19 8 -38 40 -71 48 -50 67 -73 118 -138 19 -25 37 -47 41 -50 3 -3 9 -15 13
-27 4 -13 12 -23 17 -23 5 0 9 -6 9 -13 0 -7 5 -18 11 -24 7 -7 13 -30 15 -53
2 -23 9 -50 14 -60 6 -11 10 -105 10 -218 0 -160 3 -210 17 -253 9 -30 20 -56
23 -59 4 -3 15 -21 26 -40 10 -19 25 -43 33 -52 10 -14 12 -36 8 -95 -4 -43
-9 -112 -12 -153 -3 -41 -8 -84 -12 -95 -7 -27 -38 -55 -59 -55 -10 0 -41 -8
-70 -17 -30 -9 -57 -14 -60 -10 -3 3 -12 54 -19 114 -14 111 -29 194 -44 248
-82 277 -137 345 -279 345 -179 0 -324 -107 -418 -309 -19 -42 -39 -83 -43
-91 -5 -9 -12 -31 -16 -50 -4 -19 -10 -37 -14 -40 -9 -7 -41 -102 -41 -122 0
-10 -3 -18 -8 -18 -4 0 -13 -21 -20 -48 -7 -26 -17 -63 -23 -82 -6 -19 -16
-58 -23 -87 -6 -28 -15 -55 -19 -59 -4 -4 -7 -15 -7 -25 0 -10 -10 -19 -27
-22 -16 -2 -64 -14 -107 -26 -44 -11 -82 -19 -84 -16 -7 6 23 35 61 59 15 10
27 22 27 27 0 12 -25 12 -48 0 -23 -12 -145 -41 -171 -41 -12 0 -29 -4 -39
-10 -9 -5 -37 -14 -62 -19 -25 -5 -72 -17 -105 -26 -84 -23 -122 -32 -180 -45
-27 -6 -58 -15 -67 -20 -43 -24 -53 -14 -50 46 3 44 1 55 -10 52 -8 -3 -14
-24 -16 -59 -3 -52 -5 -56 -36 -67 -18 -7 -42 -12 -54 -12 -11 0 -23 -4 -26
-9 -3 -4 -27 -11 -53 -15 -26 -3 -61 -10 -78 -15 -96 -29 -145 -41 -168 -41
-14 0 -29 -4 -32 -10 -3 -5 -17 -10 -30 -10 -39 0 -149 -38 -172 -60 -12 -11
-27 -20 -32 -20 -5 0 -16 -6 -23 -14 -8 -7 -25 -17 -38 -21 -24 -7 -25 -7 -5
9 23 18 27 19 -75 -4 -25 -5 -66 -10 -92 -10 -27 0 -48 -4 -48 -9 0 -5 -32 -8
-70 -7 -39 1 -73 -2 -77 -6 -3 -5 -12 -7 -21 -3 -8 3 -18 1 -22 -4 -3 -6 -35
-13 -70 -16 -35 -3 -69 -9 -74 -14 -15 -11 -63 -23 -108 -26 l-37 -2 -5 71
c-4 39 -8 89 -9 111 -2 22 -5 -7 -6 -65 -2 -110 -20 -213 -36 -208 -5 2 -12
-10 -15 -27 -4 -16 -9 49 -13 145 -8 174 -16 266 -36 390 -22 135 -81 350
-103 375 -4 5 -8 15 -8 23 0 7 -23 61 -52 120 -39 81 -65 121 -107 162 -77 75
-140 94 -307 87 -114 -4 -236 -20 -279 -36 -11 -5 -47 -16 -80 -26 -126 -37
-218 -95 -309 -194 -23 -24 -51 -55 -63 -68 -13 -13 -23 -30 -23 -38 0 -7 -6
-20 -12 -27 -7 -7 -22 -29 -32 -48 -11 -19 -22 -37 -25 -40 -3 -3 -22 -36 -41
-75 -19 -38 -38 -72 -42 -75 -3 -3 -10 -18 -13 -33 -4 -15 -11 -27 -16 -27 -5
0 -9 -9 -9 -19 0 -11 -4 -22 -9 -26 -5 -3 -12 -19 -16 -35 -4 -17 -11 -30 -16
-30 -5 0 -9 -6 -9 -12 0 -7 -16 -51 -35 -98 -47 -117 -51 -120 -255 -127 -88
-3 -163 -10 -166 -15 -8 -12 -214 -10 -214 2 0 6 9 10 21 10 20 0 20 3 14 148
-3 81 -10 167 -15 192 -5 25 -12 86 -15 135 -4 50 -10 104 -15 120 -5 17 -17
68 -26 115 -17 79 -45 133 -61 117 -3 -4 -1 -7 5 -7 6 0 14 -17 18 -37 4 -21
10 -42 14 -48 12 -16 19 -135 8 -135 -6 0 -7 -5 -2 -13 5 -6 8 -54 6 -104 -3
-73 -7 -93 -18 -93 -12 0 -13 -28 -8 -193 5 -183 -1 -237 -23 -213 -4 5 -2 11
5 13 14 5 18 238 4 247 -5 3 -12 45 -15 93 -4 48 -11 104 -17 123 -5 19 -10
54 -10 77 0 23 -4 44 -9 47 -5 3 -12 21 -15 40 -7 39 -44 79 -93 102 -28 14
-63 15 -240 10 -115 -4 -264 -10 -333 -15 -420 -27 -490 -32 -539 -41 -30 -6
-73 -10 -95 -10 -23 0 -103 -7 -178 -17 -120 -15 -138 -20 -138 -35 0 -14 -8
-18 -34 -18 -19 0 -37 -4 -41 -10 -3 -5 -12 -7 -20 -3 -11 4 -15 -2 -15 -23
-1 -28 -1 -28 -15 -10 -24 32 -18 83 17 142 18 30 36 54 40 54 5 0 8 6 8 14 0
17 153 173 202 206 21 14 38 28 38 33 0 4 5 7 11 7 6 0 25 11 42 24 18 13 61
39 97 58 l65 35 157 -9 c105 -6 210 -5 310 2 84 6 216 15 293 20 77 5 167 14
201 20 33 5 87 10 120 10 32 0 77 5 100 10 22 5 85 14 140 20 200 21 219 27
346 107 21 12 42 23 47 23 5 0 11 4 13 8 4 10 105 72 117 72 5 0 11 3 13 8 2
4 37 30 78 57 41 28 77 52 80 55 7 7 43 29 60 37 8 4 17 9 20 12 3 4 23 19 45
36 22 16 57 47 78 70 35 37 38 44 35 90 l-3 50 60 8 c33 5 68 13 77 18 10 5
32 9 50 9 35 0 201 32 257 49 41 13 111 57 129 82 7 10 18 24 25 31 15 15 38
56 62 112 13 29 16 53 11 92 l-6 52 41 7 c22 4 53 13 67 21 15 8 33 14 40 14
6 0 12 5 12 10 0 6 4 10 10 10 9 0 70 55 70 64 0 2 16 28 36 57 20 30 40 63
45 74 5 11 15 29 21 40 41 63 106 181 162 290 23 44 43 82 46 85 3 3 35 64 71
135 37 72 81 157 98 190 38 72 39 93 6 101 -14 3 -25 8 -25 11 0 9 45 42 58
43 6 0 12 4 12 10 0 5 18 13 40 16 22 4 40 10 40 15 0 4 8 10 18 12 9 3 -5 3
-33 0 -27 -2 -54 -8 -59 -14 -6 -5 -16 -9 -24 -9 -8 0 -30 -7 -50 -16 -21 -9
-52 -23 -69 -31 -18 -8 -33 -18 -33 -23 0 -6 -184 -10 -482 -10 -458 -1 -658
-7 -1003 -30 -436 -30 -504 -36 -511 -42 -4 -5 6 -8 22 -8 21 0 25 -3 15 -9
-8 -5 -20 -7 -28 -4 -7 3 -13 0 -13 -6 0 -6 6 -11 13 -12 6 0 2 -4 -10 -9 -13
-5 -23 -14 -23 -19 0 -6 -7 -8 -15 -5 -9 4 -15 0 -15 -10 0 -8 -6 -13 -13 -10
-7 2 -21 -2 -32 -10 -11 -9 -14 -16 -7 -16 6 0 12 -5 12 -11 0 -6 -6 -9 -13
-6 -7 3 -21 -1 -32 -9 -10 -8 -31 -14 -46 -14 -38 0 -59 -10 -59 -27 0 -12 -3
-13 -14 -4 -10 8 -16 9 -21 1 -3 -5 -14 -10 -24 -10 -10 0 -24 -7 -31 -15 -7
-8 -23 -15 -36 -15 -13 0 -24 -4 -24 -9 0 -5 -19 -12 -42 -16 -24 -4 -47 -13
-53 -20 -9 -12 -27 -18 -97 -32 -16 -3 -28 -9 -28 -14 0 -5 -12 -9 -27 -10
-16 0 -23 -3 -17 -5 7 -3 49 1 94 9 45 8 125 15 178 15 91 0 94 0 52 -11 -25
-6 -56 -21 -70 -34 -23 -21 -25 -21 -32 -5 -6 15 -8 14 -14 -6 -5 -18 -9 -20
-20 -11 -10 8 -14 8 -14 0 0 -9 -48 -40 -67 -42 -5 -1 -19 -9 -33 -19 -14 -9
-31 -15 -38 -13 -8 3 -16 -4 -19 -17 -4 -17 -8 -19 -15 -8 -7 10 -11 10 -15 1
-7 -18 -23 -16 -23 2 0 20 -28 8 -35 -16 -4 -10 -11 -19 -17 -19 -6 0 -27 -13
-47 -30 -72 -59 -94 -75 -121 -87 -8 -3 -27 -15 -42 -25 -34 -23 -85 -23 -139
2 -57 26 -79 25 -107 -4 -12 -13 -34 -27 -50 -31 -15 -3 -50 -24 -78 -46 -28
-21 -65 -42 -82 -45 -18 -4 -32 -10 -32 -15 0 -4 -24 -20 -52 -34 -29 -14 -64
-37 -78 -51 -53 -52 -106 -94 -118 -94 -7 0 -15 -6 -18 -14 -7 -18 -56 -36
-97 -36 -24 0 -28 3 -19 12 7 7 12 20 12 29 0 9 28 46 63 83 64 68 76 91 18
35 -20 -19 -38 -28 -48 -25 -13 5 -14 4 -4 -8 10 -12 8 -16 -8 -21 -12 -3 -21
-10 -21 -14 0 -4 -12 -13 -26 -19 -20 -10 -24 -10 -18 0 4 7 -6 1 -22 -13 -16
-15 -44 -30 -61 -34 -18 -4 -33 -11 -33 -16 0 -5 -7 -9 -15 -9 -8 0 -15 -4
-15 -8 0 -5 -25 -19 -55 -31 -31 -13 -60 -32 -66 -42 -5 -10 -16 -19 -24 -19
-8 0 -15 -6 -15 -14 0 -8 -6 -17 -12 -20 -22 -10 405 2 437 13 28 9 26 9 -22
10 -29 1 -53 6 -53 11 0 6 -12 10 -26 10 -21 0 -23 2 -12 13 7 8 20 14 28 15
405 25 1630 35 2625 22 182 -3 385 -1 453 3 l122 8 0 -56 c0 -53 -18 -112 -45
-142 -30 -36 -35 -43 -35 -50 0 -9 -36 -43 -46 -43 -3 0 -12 -7 -20 -15 -9 -8
-26 -15 -40 -15 -13 0 -24 -4 -24 -9 0 -8 -50 -19 -195 -41 -33 -5 -80 -14
-105 -19 -25 -6 -64 -10 -87 -11 -24 0 -43 -4 -43 -9 0 -4 -33 -11 -74 -14
-41 -4 -94 -11 -118 -16 -37 -9 -153 -28 -268 -46 -19 -2 -78 -12 -130 -21
-52 -9 -120 -18 -150 -21 -30 -3 -59 -8 -65 -13 -5 -4 -48 -10 -95 -14 -47 -4
-105 -11 -130 -16 -42 -8 -141 -21 -325 -41 -44 -5 -141 -15 -215 -24 -74 -8
-178 -19 -230 -24 -52 -6 -111 -13 -130 -17 -35 -6 -135 -15 -375 -35 -167
-13 -846 -17 -1730 -9 l-700 7 -60 58 c-33 32 -61 52 -63 45 -5 -14 65 -118
87 -129 35 -18 121 -24 436 -30 l330 -6 -41 -21 c-24 -12 -48 -18 -55 -14 -8
4 -162 10 -344 12 -181 3 -337 7 -345 9 -9 3 -16 -5 -18 -19 -2 -12 -9 -34
-17 -48 l-13 -25 -6 28 c-12 46 -60 137 -64 123 -3 -8 0 -16 7 -18 6 -2 11
-19 11 -38 0 -41 -25 -47 -42 -9 -6 14 -15 25 -20 25 -13 0 -9 -78 5 -84 6 -3
1 -4 -13 -3 -19 1 -26 -3 -28 -20 -2 -13 -8 -23 -13 -23 -5 0 -9 -11 -9 -25 0
-14 4 -25 9 -25 5 0 12 11 15 25 8 32 38 33 62 1 10 -14 28 -27 41 -31 13 -3
25 -15 29 -29 3 -13 2 -108 -3 -211 -8 -178 -10 -189 -31 -203 -18 -12 -22
-24 -22 -64 0 -27 -5 -59 -11 -70 -9 -16 -8 -35 2 -75 11 -46 10 -56 -1 -63
-12 -7 -11 -10 5 -16 28 -10 70 -44 56 -44 -7 0 -19 7 -27 15 -9 8 -24 15 -35
15 -14 0 -19 7 -19 25 0 14 -6 25 -13 25 -31 0 -94 59 -120 112 -25 50 -33 58
-107 96 -59 31 -80 38 -80 27 0 -8 6 -15 13 -15 24 0 38 -136 40 -373 2 -218
1 -229 -18 -243 -17 -13 -20 -26 -19 -90 0 -74 5 -85 39 -97 15 -5 -15 -57
-33 -57 -18 0 -41 -29 -42 -51 0 -28 58 -99 83 -99 41 0 51 -14 35 -45 l-15
-28 -41 37 c-39 36 -41 36 -47 15 -5 -15 -2 -26 9 -34 23 -18 20 -34 -6 -28
-19 5 -21 3 -10 -8 6 -7 12 -27 12 -44 0 -39 37 -96 70 -107 16 -5 40 39 40
75 0 29 32 130 47 145 14 15 60 16 102 1 37 -13 39 -21 9 -34 -13 -6 -23 -17
-23 -25 -2 -77 -19 -269 -24 -277 -3 -5 -25 -15 -48 -22 -23 -8 -39 -19 -37
-25 2 -6 -11 -19 -28 -30 -24 -13 -29 -20 -18 -24 8 -3 18 -10 22 -16 5 -7 41
-10 98 -9 50 1 114 -3 143 -8 29 -6 97 -15 152 -19 67 -5 93 -10 78 -15 -25
-8 -29 -25 -14 -54 6 -10 13 -49 16 -87 4 -38 11 -73 16 -79 5 -5 9 -19 9 -32
0 -30 60 -207 71 -211 5 -2 9 -8 9 -14 0 -11 31 -80 39 -88 4 -3 22 -27 41
-55 42 -62 161 -185 178 -185 6 0 12 -4 12 -9 0 -5 10 -13 23 -17 12 -4 24
-10 27 -13 7 -9 138 -71 150 -71 5 0 10 -4 10 -10 0 -5 -11 -10 -24 -10 -20 0
-24 -6 -30 -40 -3 -22 -11 -40 -16 -40 -6 0 -10 -20 -10 -44 0 -25 -4 -48 -10
-51 -5 -3 -10 -26 -10 -51 0 -35 6 -50 29 -74 15 -17 37 -30 49 -30 11 0 22
-5 24 -10 2 -6 28 -13 58 -16 30 -3 59 -10 65 -15 5 -5 19 -9 32 -9 13 0 23
-6 23 -12 0 -9 4 -8 10 2 7 10 12 12 18 4 4 -6 25 -14 47 -18 22 -4 46 -13 53
-19 10 -8 16 -7 23 4 6 10 11 11 17 3 4 -7 36 -15 72 -19 36 -4 71 -12 78 -17
8 -7 12 -7 12 2 0 8 4 9 13 3 6 -5 39 -10 72 -12 33 -2 63 -8 66 -13 4 -6 9
-5 12 3 5 12 7 12 15 0 8 -11 10 -11 15 0 4 11 7 11 14 1 6 -7 45 -15 99 -18
49 -4 95 -11 102 -16 8 -7 12 -7 12 2 0 9 4 9 13 2 6 -5 63 -12 126 -15 62 -3
117 -9 120 -14 18 -20 207 -444 296 -663 13 -30 46 -109 75 -175 29 -66 63
-145 75 -175 74 -180 171 -394 205 -450 155 -261 441 -444 774 -495 101 -16
137 -16 535 -1 636 24 1207 45 1376 51 83 3 330 12 550 20 220 8 535 19 700
25 165 6 341 12 390 15 50 3 171 7 270 10 205 6 826 28 1400 50 215 9 532 20
705 25 173 6 405 15 515 20 110 5 221 10 248 10 l47 0 0 5360 0 5360 -1697 0
-1698 -1 -95 -59z m2438 -139 c72 -39 120 -88 159 -163 25 -48 28 -62 28 -158
0 -96 -3 -110 -28 -158 -39 -75 -87 -124 -159 -163 l-63 -34 -720 0 -720 0
-53 28 c-75 39 -124 87 -163 159 -33 60 -34 68 -34 168 0 95 3 110 27 157 37
69 81 118 135 150 93 54 65 53 823 50 l705 -2 63 -34z m-2011 -3038 c-20 -2
-52 -2 -70 0 -17 2 0 4 38 4 39 0 53 -2 32 -4z m381 -34 c2 -5 29 -10 60 -11
32 0 43 -3 26 -5 -16 -2 -73 1 -125 8 -52 6 -130 15 -174 19 -59 6 -42 7 65 3
80 -2 147 -9 148 -14z m-758 1 c0 -5 -4 -10 -10 -10 -5 0 -10 5 -10 10 0 6 5
10 10 10 6 0 10 -4 10 -10z m980 -30 c11 -7 2 -10 -32 -10 -27 0 -48 5 -48 10
0 13 60 13 80 0z m115 -19 c-5 -9 -74 -5 -84 4 -2 3 17 5 43 5 26 0 45 -4 41
-9z m80 -11 c15 -6 7 -9 -30 -8 -39 0 -45 2 -25 8 32 10 31 10 55 0z m95 -20
c0 -5 -13 -10 -29 -10 -17 0 -33 5 -36 10 -4 6 8 10 29 10 20 0 36 -4 36 -10z
m46 1 c5 -5 20 -11 34 -14 16 -3 10 -5 -17 -6 -32 -1 -43 3 -43 14 0 17 11 20
26 6z m134 -33 c0 -4 -13 -8 -30 -8 -16 0 -30 4 -30 9 0 5 14 9 30 9 17 -1 30
-5 30 -10z m73 -15 c-7 -2 -19 -2 -25 0 -7 3 -2 5 12 5 14 0 19 -2 13 -5z m80
-20 c-7 -2 -19 -2 -25 0 -7 3 -2 5 12 5 14 0 19 -2 13 -5z m107 -12 c0 -5 10
-12 23 -14 12 -2 4 -2 -18 0 -57 7 -64 8 -71 16 -4 4 9 7 29 7 21 0 37 -4 37
-9z m130 -31 c0 -5 -10 -10 -22 -10 -19 0 -20 2 -8 10 19 13 30 13 30 0z
m-807 -210 c-14 -6 -32 -6 -45 0 -19 7 -15 9 22 9 37 0 41 -2 23 -9z m290 -17
c-29 -2 -77 -2 -105 0 -29 2 -6 3 52 3 58 0 81 -1 53 -3z m272 -21 c-3 -3 -11
0 -18 7 -9 10 -8 11 6 5 10 -3 15 -9 12 -12z m-670 -58 c-48 -8 -115 -9 -115
-2 0 5 30 7 68 7 37 -1 58 -3 47 -5z m453 -21 c-32 -2 -84 -2 -115 0 -32 2 -6
3 57 3 63 0 89 -1 58 -3z m69 -25 c-3 -8 -6 -5 -6 6 -1 11 2 17 5 13 3 -3 4
-12 1 -19z m-5161 -394 c-3 -9 -6 -18 -6 -20 0 -2 -10 -4 -22 -4 -20 0 -21 1
-3 20 22 24 40 26 31 4z m-86 -64 c0 -5 -5 -10 -11 -10 -5 0 -7 5 -4 10 3 6 8
10 11 10 2 0 4 -4 4 -10z m-846 -84 c-21 -15 -30 -14 -19 3 3 6 14 11 23 11
13 0 13 -2 -4 -14z m5122 -63 c16 -21 18 -63 4 -63 -5 0 -10 -7 -10 -15 0 -8
5 -15 10 -15 6 0 10 -4 10 -10 0 -5 -7 -10 -15 -10 -8 0 -15 7 -15 15 0 9 -11
20 -25 25 -29 11 -32 35 -9 68 18 27 32 28 50 5z m-5102 -17 c-7 -19 -58 -23
-52 -4 4 11 48 29 56 23 1 -1 0 -10 -4 -19z m-126 0 c-7 -8 -15 -12 -17 -11
-5 6 10 25 20 25 5 0 4 -6 -3 -14z m4872 -3 c0 -18 -89 -43 -153 -43 -37 0
-67 -4 -67 -8 0 -5 -37 -14 -82 -20 -46 -7 -98 -15 -115 -18 -19 -4 -33 -2
-33 4 0 12 78 42 111 42 14 0 29 3 32 7 4 3 19 7 34 9 16 1 79 7 142 13 62 5
116 12 119 15 7 8 12 7 12 -1z m-4890 -38 c0 -8 -4 -15 -10 -15 -5 0 -10 7
-10 15 0 8 5 15 10 15 6 0 10 -7 10 -15z m5069 -4 c17 -11 1 -21 -25 -16 -10
2 -32 4 -49 6 l-30 2 35 7 c50 11 54 11 69 1z m-144 -8 c-11 -3 -24 -9 -29
-14 -6 -5 -24 -9 -40 -9 -29 1 -30 1 -12 15 11 8 38 14 60 14 23 -1 32 -3 21
-6z m-4709 -143 c0 -22 -27 -25 -76 -10 -32 9 -11 19 65 29 6 0 11 -8 11 -19z
m124 -20 c0 -5 -7 -10 -15 -10 -8 0 -15 5 -15 10 0 6 7 10 15 10 8 0 15 -4 15
-10z m5340 -30 c0 -5 -24 -10 -53 -10 -29 0 -89 -5 -134 -10 -44 -6 -139 -15
-210 -20 -70 -5 -198 -17 -283 -26 -176 -18 -403 -28 -437 -19 -13 3 -23 10
-23 16 0 8 25 9 83 5 85 -6 132 -3 572 43 55 6 138 11 185 11 47 0 92 5 100
10 20 13 200 13 200 0z m2043 -67 c-7 -2 -19 -2 -25 0 -7 3 -2 5 12 5 14 0 19
-2 13 -5z m-5 -29 c38 -11 24 -24 -25 -24 -43 0 -45 1 -27 15 22 17 22 17 52
9z m78 -59 c4 -8 3 -27 0 -41 -8 -31 -36 -29 -51 4 -5 12 -15 22 -22 22 -7 0
-13 7 -13 15 0 21 78 21 86 0z m-4876 -182 c-1 -17 -26 -39 -45 -41 -156 -11
-184 -11 -190 -1 -4 6 -1 9 6 7 8 -1 28 2 44 8 73 28 185 44 185 27z m-585
-104 c-38 -13 -145 -37 -210 -49 -27 -5 -84 -16 -125 -24 -154 -31 -247 -47
-325 -56 -44 -6 -125 -17 -180 -26 -55 -8 -138 -19 -184 -24 -47 -5 -108 -14
-135 -19 -28 -6 -103 -17 -166 -25 -63 -9 -131 -18 -150 -21 -19 -3 -69 -10
-110 -15 -41 -6 -95 -14 -120 -19 -25 -6 -62 -13 -83 -16 -21 -3 -46 -14 -55
-23 -10 -9 -38 -27 -63 -40 -44 -21 -99 -67 -99 -82 0 -4 -9 -17 -20 -30 -11
-13 -20 -29 -20 -36 0 -7 -4 -14 -9 -16 -13 -4 -22 -56 -11 -63 11 -7 6 -40
-20 -145 -10 -41 -21 -91 -24 -111 -11 -61 -23 -69 -124 -83 -65 -9 -92 -10
-92 -2 0 11 80 176 90 186 10 10 31 45 36 63 4 9 10 17 14 17 4 0 11 11 14 25
4 14 11 25 16 25 6 0 10 7 10 15 0 8 4 15 9 15 5 0 12 8 16 19 3 10 16 30 28
43 12 13 35 42 51 64 35 48 106 114 124 114 6 0 12 5 12 10 0 6 8 10 18 11 11
1 8 3 -8 8 -24 7 -24 7 12 29 19 12 40 22 47 22 6 0 11 4 11 10 0 5 11 12 25
16 14 3 25 10 25 15 0 5 9 9 20 9 10 0 29 4 42 10 13 5 75 14 138 20 235 21
303 28 620 65 69 8 148 17 175 19 28 3 95 12 150 21 180 30 409 64 490 75 33
4 85 7 115 8 49 0 52 -1 25 -9z m290 -99 c22 5 52 12 68 16 15 3 27 2 27 -2 0
-17 -67 -54 -113 -63 -27 -5 -49 -10 -50 -12 -2 -2 -13 -25 -26 -51 -14 -27
-28 -48 -33 -48 -10 0 0 50 14 67 16 20 0 33 -28 23 -14 -6 -35 -10 -47 -10
-47 0 -97 -21 -113 -48 -9 -15 -38 -45 -66 -67 -28 -22 -76 -65 -108 -96 -32
-31 -66 -59 -76 -63 -17 -5 -17 -4 1 12 31 27 49 52 37 52 -6 0 -17 -6 -24
-14 -23 -22 -75 -46 -102 -46 -16 0 -24 -5 -21 -12 4 -10 -20 -13 -97 -15 -57
-1 -130 -5 -163 -8 -88 -8 -199 8 -227 34 -30 29 -59 35 -126 27 -32 -3 -124
-13 -207 -22 -82 -8 -184 -19 -225 -24 -77 -9 -169 -11 -137 -3 9 2 17 9 17
14 0 5 17 9 38 9 39 0 264 24 367 40 33 5 99 12 147 15 84 6 87 6 145 -26 57
-33 60 -33 178 -32 135 2 294 26 334 51 14 9 53 42 86 73 119 113 148 139 169
145 12 4 23 10 26 13 7 9 167 41 203 41 30 0 57 20 57 41 0 8 6 7 18 -4 13
-12 26 -13 57 -7z m-573 -74 c24 -29 22 -36 -7 -36 -14 0 -25 -4 -25 -10 0
-17 -18 -11 -25 8 -3 11 -17 24 -30 30 -30 14 -33 32 -6 32 11 0 23 5 26 10 8
13 43 -5 67 -34z m51 27 c10 -9 -25 -32 -40 -26 -18 7 -16 21 5 26 27 7 28 7
35 0z m-209 -48 c6 -17 -5 -20 -19 -6 -6 5 -26 11 -45 14 -30 3 -29 4 11 5 34
2 49 -2 53 -13z m-1649 -30 c61 1 146 4 190 9 72 7 78 7 60 -6 -33 -25 -200
-31 -715 -29 -522 2 -589 5 -617 28 -16 12 41 13 477 6 272 -4 545 -8 605 -8z
m1645 -21 c0 -8 -4 -14 -9 -14 -12 0 -32 26 -25 33 10 9 34 -4 34 -19z m-350
-3 c0 -5 -15 -20 -32 -32 -18 -13 -35 -26 -38 -29 -21 -23 -48 -33 -102 -37
-35 -3 -65 -9 -68 -13 -3 -4 -32 -11 -65 -14 -33 -3 -84 -8 -113 -12 -34 -4
-58 -2 -65 5 -8 8 5 11 49 12 32 0 84 4 114 9 30 5 78 12 105 16 28 4 53 11
56 17 4 5 18 10 31 10 16 1 24 7 21 15 -3 6 0 12 5 12 6 0 23 11 38 25 27 25
64 34 64 16z m-195 -22 c-76 -20 -189 -27 -130 -7 35 11 127 25 170 26 18 0 3
-7 -40 -19z m-2218 5 c-3 -3 -12 -4 -19 -1 -8 3 -5 6 6 6 11 1 17 -2 13 -5z
m2703 -9 c0 -8 -4 -15 -10 -15 -5 0 -10 7 -10 15 0 8 5 15 10 15 6 0 10 -7 10
-15z m240 -3 c0 -24 -23 -72 -34 -72 -5 0 -6 14 -2 31 3 17 6 38 6 45 0 8 7
14 15 14 8 0 15 -8 15 -18z m-276 -1 c3 -5 0 -11 -8 -14 -15 -6 -26 1 -26 15
0 11 27 10 34 -1z m-2669 -25 c34 -18 69 -49 88 -78 18 -28 24 -88 8 -88 -5 0
-11 -12 -14 -27 -11 -58 -36 -107 -73 -144 -22 -21 -43 -38 -49 -39 -5 0 -23
-7 -40 -16 -40 -21 -163 -23 -202 -4 -83 42 -114 88 -114 169 0 33 7 70 16 89
26 51 99 121 134 128 17 4 31 10 31 15 0 20 174 16 215 -5z m2815 -1 c0 -8 -9
-15 -19 -15 -11 0 -22 -6 -24 -12 -3 -7 -6 -4 -6 8 -1 11 2 24 6 27 12 13 43
7 43 -8z m-3660 -39 c0 -2 -7 -6 -15 -10 -8 -3 -15 -1 -15 4 0 6 7 10 15 10 8
0 15 -2 15 -4z m104 -32 c3 -9 6 -24 6 -35 0 -30 39 -47 128 -54 57 -5 82 -11
82 -20 0 -7 6 -16 13 -18 18 -8 -189 3 -248 13 -28 4 -52 4 -55 0 -3 -5 -34
-5 -70 0 -36 5 -71 10 -77 10 -7 0 -13 9 -13 20 0 17 7 20 44 20 65 0 105 -10
108 -28 3 -14 5 -14 20 1 9 9 23 14 31 11 19 -7 33 14 18 29 -6 6 -11 21 -11
33 0 19 -6 23 -37 27 -36 3 -35 4 8 5 35 2 48 -2 53 -14z m321 -77 c6 -22 4
-26 -9 -21 -9 3 -16 10 -16 14 0 4 -3 23 -6 41 -6 33 -6 33 9 13 9 -11 19 -33
22 -47z m2318 56 c-13 -2 -35 -2 -50 0 -16 2 -5 4 22 4 28 0 40 -2 28 -4z
m-2538 -42 c-3 -6 -11 -11 -16 -11 -5 0 -4 6 3 14 14 16 24 13 13 -3z m925
-11 c-25 -16 -52 -30 -60 -29 -13 0 -13 1 0 6 8 4 21 12 28 20 7 7 20 13 28
13 8 0 14 5 14 10 0 6 8 10 18 10 10 0 -1 -12 -28 -30z m467 24 c-3 -3 -12 -4
-19 -1 -8 3 -5 6 6 6 11 1 17 -2 13 -5z m-67 -36 c-74 -35 -83 -38 -139 -48
-67 -12 -251 -13 -251 -1 0 15 41 22 155 27 146 6 215 14 215 24 0 9 22 17 50
19 8 0 -5 -9 -30 -21z m350 -28 c0 -6 -46 -10 -117 -10 -65 0 -136 -3 -158 -6
-39 -5 -39 -5 -15 9 30 18 290 24 290 7z m461 -9 c-6 -10 -20 -25 -33 -34 -13
-8 -44 -36 -70 -61 -26 -25 -49 -46 -53 -46 -7 0 26 52 39 61 5 4 5 12 1 19
-5 9 -4 11 3 6 8 -5 12 1 12 17 0 32 22 49 53 42 14 -4 28 -2 31 4 13 20 27
12 17 -8z m79 -16 c0 -8 -7 -15 -15 -15 -13 0 -14 3 -3 15 16 18 18 18 18 0z
m6446 -31 c-5 -12 -1 -14 17 -8 18 5 17 2 -8 -17 -16 -13 -32 -26 -35 -30 -3
-4 -11 -1 -18 7 -13 14 -5 19 21 15 5 -1 7 4 5 11 -3 7 0 18 6 25 15 17 19 16
12 -3z m-52 -84 c-6 -6 -10 -3 -10 10 0 13 4 16 10 10 7 -7 7 -13 0 -20z
m-8801 -7 c-13 -2 -33 -2 -45 0 -13 2 -3 4 22 4 25 0 35 -2 23 -4z m136 -107
c20 -3 61 -6 92 -6 48 0 59 -4 72 -23 l14 -22 -111 4 c-96 3 -113 6 -128 24
-10 11 -18 15 -18 9 0 -17 -25 -15 -40 3 -11 13 -8 15 19 15 l31 0 -6 48 -5
47 22 -46 c19 -40 27 -48 58 -53z m262 24 c5 0 9 -7 9 -15 0 -21 41 -35 100
-35 27 0 52 -4 55 -10 9 -15 175 -12 285 4 52 8 97 13 99 10 2 -2 -3 -4 -12
-4 -10 0 -17 -4 -17 -8 0 -4 -16 -14 -36 -21 -29 -10 -85 -12 -254 -6 -120 4
-222 10 -228 14 -5 3 -13 29 -16 56 -3 28 -3 42 0 33 3 -10 10 -18 15 -18z
m1036 3 c-9 -2 -15 -8 -12 -13 3 -5 -8 -11 -25 -15 -16 -4 -30 -11 -30 -16 0
-5 -7 -9 -15 -9 -8 0 -23 -4 -33 -9 -67 -37 -88 -41 -203 -40 -96 0 -119 3
-119 15 0 8 9 14 19 14 11 0 23 5 26 10 4 6 56 9 133 8 124 -2 128 -2 187 28
33 17 67 31 75 31 9 1 8 -1 -3 -4z m-1465 -15 c8 -7 18 -20 21 -29 4 -14 -5
-15 -71 -11 -82 5 -98 11 -89 36 8 20 115 22 139 4z m1772 -43 c-4 -8 -9 -15
-13 -16 -256 -21 -311 -24 -311 -13 0 20 41 28 185 34 77 3 141 7 142 8 1 1 0
-5 -3 -13z m-1139 -102 c-11 -3 -23 -10 -26 -15 -3 -5 -9 -3 -12 6 -5 13 0 16
26 15 21 -1 25 -3 12 -6z m-628 -49 c-3 -3 -12 -4 -19 -1 -8 3 -5 6 6 6 11 1
17 -2 13 -5z m118 -84 c13 -41 34 -49 128 -50 68 0 87 -3 87 -14 0 -8 6 -16
13 -19 6 -2 9 -7 5 -11 -3 -4 -32 -3 -64 3 -32 6 -84 11 -115 11 l-58 0 -10
38 c-23 91 -23 95 -8 80 8 -8 18 -25 22 -38z m306 0 c5 0 9 -6 9 -14 0 -8 11
-23 24 -34 21 -16 49 -20 185 -26 l161 -7 57 28 c81 38 79 38 63 22 -9 -8 -44
-29 -79 -47 l-63 -33 -169 7 -169 7 -14 31 c-8 17 -16 45 -19 61 -2 17 -2 24
0 18 3 -7 9 -13 14 -13z m-197 -5 c-7 -16 -24 -21 -24 -6 0 8 7 13 27 20 1 1
0 -6 -3 -14z m1263 -15 c10 0 12 -6 7 -22 -8 -29 -10 -31 -23 -23 -6 3 -9 11
-6 16 10 15 -2 10 -20 -8 -14 -14 -18 -14 -26 -2 -6 10 -9 10 -9 2 0 -7 -12
-13 -26 -13 -21 0 -25 4 -22 23 2 16 10 22 28 23 14 1 28 -3 32 -10 5 -7 13
-4 25 11 10 12 20 18 21 13 2 -6 10 -10 19 -10z m-1502 -6 c11 -3 25 -15 31
-28 11 -23 10 -23 -35 -19 -118 10 -131 14 -131 34 0 17 7 19 58 19 31 0 66
-3 77 -6z m1245 -51 c-8 -3 -17 -9 -20 -12 -18 -21 -56 -26 -169 -21 -100 4
-121 7 -109 17 9 8 61 14 144 16 71 1 138 3 149 4 13 1 15 0 5 -4z m8440 -33
c0 -16 5 -41 10 -56 8 -19 8 -30 0 -38 -5 -5 -10 -29 -10 -52 0 -55 -53 -204
-72 -204 -4 0 -8 -6 -8 -12 0 -7 -16 -31 -35 -53 -20 -22 -38 -48 -41 -57 -3
-10 -9 -18 -14 -18 -5 0 -12 -9 -15 -20 -3 -11 -11 -20 -17 -20 -10 0 -9 12
14 128 9 50 9 88 -1 190 -7 70 -14 138 -14 152 -2 22 4 27 48 38 28 8 62 16
78 19 15 3 32 14 37 24 15 26 40 12 40 -21z m-8100 21 c0 -10 -30 -24 -37 -17
-3 3 -2 9 2 15 8 13 35 15 35 2z m-1786 -77 c17 -16 21 -34 9 -34 -17 1 -45
29 -38 39 8 14 11 14 29 -5z m-84 -4 c0 -5 -13 -10 -30 -10 -16 0 -30 5 -30
10 0 6 14 10 30 10 17 0 30 -4 30 -10z m2305 0 c-3 -5 -24 -10 -46 -10 -21 0
-39 5 -39 10 0 6 21 10 46 10 27 0 43 -4 39 -10z m-2227 -40 c11 0 25 -6 31
-14 18 -22 331 -44 926 -66 127 -5 266 -11 310 -15 94 -7 558 -27 660 -28 39
0 122 8 185 17 70 11 202 20 336 23 l220 5 19 -28 c25 -38 63 -80 236 -255 80
-82 143 -152 140 -157 -7 -10 -40 -19 -126 -34 -33 -5 -68 -14 -77 -19 -10 -5
-27 -9 -39 -9 -12 0 -52 -7 -90 -15 -175 -38 -209 -43 -281 -44 -62 -1 -76 1
-72 13 5 13 -19 46 -34 46 -4 0 -27 18 -52 40 -25 22 -48 40 -51 40 -3 0 -28
21 -54 46 -27 25 -68 59 -91 75 -23 15 -44 35 -47 43 -3 8 -19 17 -36 21 -17
4 -31 10 -31 14 0 25 -98 45 -290 60 -219 18 -297 20 -745 25 -247 2 -488 9
-535 15 -115 14 -476 21 -458 9 9 -7 4 -8 -15 -4 -58 13 -105 -47 -105 -135 0
-30 -4 -55 -11 -57 -6 -2 -11 -13 -11 -25 0 -51 -11 -67 -45 -67 -42 0 -61 21
-45 50 6 12 9 24 6 27 -3 3 1 18 8 32 8 14 22 62 32 106 10 44 21 85 25 90 3
6 9 23 13 38 10 41 55 105 79 113 26 8 47 28 47 44 0 8 8 7 25 -4 13 -9 33
-16 43 -16z m81 1 c10 -6 10 -10 1 -16 -7 -4 -19 0 -28 9 -14 13 -14 16 -2 16
8 0 21 -4 29 -9z m2977 -71 c13 0 57 -40 67 -60 4 -8 34 -55 66 -105 36 -54
55 -94 50 -99 -12 -13 -12 -46 0 -46 5 0 12 -8 15 -18 4 -10 16 -29 27 -41 27
-29 17 -37 -53 -44 -50 -5 -58 -3 -58 12 0 9 9 24 20 34 23 19 26 59 8 79 -7
7 -29 36 -48 63 -19 28 -38 52 -42 53 -4 2 -8 8 -8 13 0 8 -69 108 -99 145
-13 16 -1 26 24 20 11 -3 25 -6 31 -6z m-161 -34 c-38 -37 -42 -57 -20 -96 26
-46 15 -40 -60 33 -41 41 -75 76 -75 80 0 6 51 11 148 15 l42 2 -35 -34z m827
-116 c-12 -12 -22 -27 -22 -34 0 -16 -27 -29 -41 -20 -5 3 -9 16 -9 29 0 19 7
24 40 30 22 4 40 12 40 18 0 5 3 7 7 4 3 -4 -3 -16 -15 -27z m-3859 -55 c-3
-9 -8 -14 -10 -11 -3 3 -2 9 2 15 9 16 15 13 8 -4z m9236 -129 c-5 -6 -9 7 -8
35 l1 44 8 -35 c5 -20 5 -39 -1 -44z m-89 24 c0 -11 -4 -20 -10 -20 -5 0 -10
9 -10 20 0 11 5 20 10 20 6 0 10 -9 10 -20z m200 -14 c0 -7 -96 -66 -108 -66
-6 0 -9 7 -6 15 4 8 14 15 23 15 9 0 32 9 51 19 39 22 40 23 40 17z m-610 -40
c0 -10 -17 -16 -57 -20 -66 -6 -248 -32 -248 -36 0 -3 -165 -29 -230 -36 -27
-4 -54 -10 -60 -14 -5 -4 -49 -11 -97 -15 -49 -4 -88 -11 -88 -16 0 -5 -15 -9
-34 -9 -18 0 -58 -5 -87 -11 -75 -15 -158 -28 -266 -42 -50 -7 -95 -15 -99
-19 -4 -5 -23 -8 -43 -8 -20 -1 -65 -7 -101 -15 -36 -8 -84 -14 -107 -15 -23
0 -44 -4 -47 -9 -4 -5 -49 -12 -101 -16 -52 -4 -95 -11 -95 -15 0 -5 -26 -11
-57 -14 -88 -8 -236 -31 -256 -40 -9 -5 -33 -6 -52 -4 -19 2 -35 0 -35 -4 0
-4 -14 -8 -30 -8 -53 0 -29 25 30 31 98 11 225 31 245 39 11 4 61 13 110 19
161 21 210 29 235 35 14 4 54 11 90 16 36 5 110 16 165 25 55 9 125 20 155 25
30 5 98 16 150 25 52 9 127 20 165 26 39 5 77 12 85 15 16 7 84 18 225 37 50
7 97 16 105 19 8 3 67 13 130 22 63 9 138 21 165 26 28 6 64 12 80 14 17 1 36
4 43 5 6 0 12 -5 12 -13z m794 -21 c-4 -8 -10 -13 -15 -10 -4 3 -6 12 -3 20 4
8 10 13 15 10 4 -3 6 -12 3 -20z m-6015 -36 c-12 -10 -28 -19 -36 -19 -7 0
-13 -5 -13 -11 0 -7 18 -9 53 -6 293 30 467 33 474 11 3 -8 -56 -14 -199 -19
-112 -3 -255 -9 -318 -11 -130 -5 -162 1 -115 22 17 7 39 13 50 14 11 0 40 11
65 24 50 27 73 24 39 -5z m1223 5 c6 -5 -21 -64 -34 -74 -3 -3 -10 -18 -13
-33 -4 -15 -11 -30 -16 -33 -5 -3 -9 -12 -9 -20 0 -8 -11 -37 -24 -64 -14 -28
-28 -64 -31 -80 -4 -17 -11 -32 -16 -35 -5 -4 -9 -17 -9 -30 0 -13 -3 -25 -7
-27 -5 -1 -15 -16 -23 -32 -13 -25 -26 -32 -85 -47 -38 -9 -90 -19 -114 -23
-48 -6 -121 -35 -121 -48 0 -4 -7 -8 -15 -8 -9 0 -12 6 -9 15 5 11 2 13 -10 9
-11 -4 -15 -14 -11 -28 2 -11 2 -16 -1 -9 -3 7 -12 9 -20 6 -8 -3 -14 0 -14 6
0 6 4 11 9 11 5 0 13 10 17 22 3 12 13 29 21 37 12 12 14 50 11 218 l-3 205
-77 -4 c-56 -2 -78 0 -78 9 0 8 33 13 108 16 202 9 522 33 528 40 9 8 38 9 46
1z m4808 -14 c0 -5 -2 -10 -4 -10 -3 0 -8 5 -11 10 -3 6 -1 10 4 10 6 0 11 -4
11 -10z m-310 -32 c0 -19 -2 -20 -10 -8 -13 19 -13 30 0 30 6 0 10 -10 10 -22z
m-3620 -23 c0 -14 -4 -25 -10 -25 -5 0 -10 -19 -11 -42 0 -24 -3 -37 -6 -30
-8 20 7 122 18 122 5 0 9 -11 9 -25z m-2350 -32 c-14 -3 -29 -9 -34 -14 -6 -5
-24 -9 -40 -8 l-31 0 35 13 c19 8 49 14 65 13 26 0 27 0 5 -4z m810 -28 c0
-19 -4 -35 -10 -35 -5 0 -10 16 -10 35 0 19 5 35 10 35 6 0 10 -16 10 -35z
m5220 4 c0 -5 -4 -9 -10 -9 -5 0 -10 7 -10 16 0 8 5 12 10 9 6 -3 10 -10 10
-16z m-8731 -20 c-9 -17 -17 -20 -41 -15 -17 3 -41 6 -54 6 -15 0 -24 6 -24
15 0 12 14 15 65 15 64 0 65 -1 54 -21z m79 7 c18 -11 -11 -36 -42 -36 -19 0
-26 5 -26 18 0 10 3 21 6 25 7 7 46 3 62 -7z m2500 7 c-10 -2 -26 -2 -35 0
-10 3 -2 5 17 5 19 0 27 -2 18 -5z m6086 -8 c3 -10 -1 -15 -13 -15 -10 0 -21
7 -25 15 -3 10 1 15 13 15 10 0 21 -7 25 -15z m-6954 -24 c0 -5 11 -12 24 -15
23 -6 116 -88 116 -102 0 -4 -8 0 -18 9 -10 10 -25 17 -33 17 -22 0 -128 99
-106 100 9 0 17 -4 17 -9z m6991 -26 c5 -30 -10 -77 -23 -73 -15 5 -20 65 -7
90 12 22 26 14 30 -17z m-61 -1 c0 -8 -4 -12 -10 -9 -5 3 -10 10 -10 16 0 5 5
9 10 9 6 0 10 -7 10 -16z m-3633 -26 c-3 -7 -5 -2 -5 12 0 14 2 19 5 13 2 -7
2 -19 0 -25z m3568 2 c18 -19 17 -20 -3 -20 -15 0 -20 6 -19 20 1 11 2 20 3
20 0 0 9 -9 19 -20z m-8618 -1 c6 -6 8 -19 6 -30 -4 -14 -11 -17 -27 -13 -14
3 -28 -1 -35 -10 -19 -22 -32 -10 -25 22 4 15 9 30 11 35 6 11 58 8 70 -4z
m3433 1 c-20 -5 -39 -5 -44 1 -6 5 7 9 35 8 l44 -1 -35 -8z m-3324 -10 c20 0
24 -5 24 -29 0 -34 -19 -44 -66 -35 -26 5 -34 11 -34 28 0 27 20 48 38 41 8
-3 25 -5 38 -5z m142 -10 c6 0 12 -9 12 -20 0 -11 -5 -20 -11 -20 -5 0 -8 -4
-4 -9 9 -16 -15 -24 -31 -10 -10 8 -12 15 -4 23 5 5 10 16 10 23 0 23 -17 14
-30 -17 -15 -36 -46 -42 -36 -7 3 12 6 25 6 29 0 10 32 17 55 12 11 -2 26 -4
33 -4z m132 -9 c0 -5 -9 -13 -20 -16 -11 -4 -20 -15 -20 -26 0 -24 -27 -36
-43 -19 -9 10 -9 14 1 17 14 6 16 33 2 33 -5 0 -10 5 -10 10 0 6 20 10 45 10
25 0 45 -4 45 -9z m53 -17 c-1 -5 -5 -17 -8 -26 -11 -28 20 -22 35 7 16 29 40
33 40 7 0 -32 -31 -49 -77 -44 -47 5 -51 11 -27 48 15 23 41 28 37 8z m134
-11 c10 -13 16 -15 19 -5 6 13 44 17 44 4 0 -18 -26 -62 -36 -62 -6 0 -17 7
-24 15 -12 14 -15 14 -30 0 -9 -8 -20 -12 -23 -8 -11 10 -8 43 3 43 6 0 10 7
10 15 0 20 20 19 37 -2z m178 -3 c3 -5 -3 -16 -12 -26 -17 -16 -18 -16 -21 -1
-5 25 -21 21 -28 -8 -8 -31 -44 -35 -44 -5 0 12 6 27 13 35 13 14 84 18 92 5z
m2805 -52 c0 -20 -4 -40 -10 -43 -5 -3 -10 -20 -10 -37 0 -17 -9 -49 -19 -72
-11 -23 -23 -66 -26 -96 -7 -67 -9 -70 -60 -102 -64 -39 -130 -55 -280 -68
-269 -22 -1158 -46 -1190 -32 -18 9 -51 16 -184 39 -18 3 -45 12 -60 20 -23
13 -12 14 116 8 l142 -6 17 26 c9 14 15 27 13 29 -2 1 -22 16 -44 32 -22 16
-42 31 -45 34 -3 3 -26 22 -52 43 -26 21 -74 65 -108 99 -60 62 -85 73 -31 15
65 -71 101 -112 101 -119 0 -13 -18 -9 -22 4 -3 7 -12 5 -26 -8 -22 -19 -72
-27 -72 -12 0 4 -16 8 -35 8 -33 0 -35 -2 -29 -25 3 -14 2 -25 -4 -25 -5 0
-13 12 -17 27 -3 15 -10 30 -14 33 -4 3 -21 34 -38 70 -64 134 -61 140 63 140
57 0 103 -5 116 -12 11 -7 85 -77 164 -156 l143 -143 168 4 c376 10 781 28
832 37 30 6 77 10 103 10 27 0 83 7 125 16 81 17 125 41 202 114 l44 41 -6 59
c-3 33 -1 60 4 60 5 0 9 12 9 28 0 21 2 24 10 12 5 -8 10 -32 10 -52z m4700
52 c0 -5 -4 -10 -10 -10 -5 0 -10 5 -10 10 0 6 5 10 10 10 6 0 10 -4 10 -10z
m-7401 -6 c28 -6 45 -34 20 -34 -6 0 -8 -9 -4 -20 4 -14 2 -20 -8 -20 -23 0
-37 24 -30 51 6 21 5 22 -10 11 -9 -8 -19 -22 -22 -33 -4 -10 -13 -19 -22 -19
-12 0 -14 6 -8 27 10 42 25 48 84 37z m7915 -19 c-4 -8 -10 -12 -15 -9 -14 8
-10 24 6 24 9 0 12 -6 9 -15z m-7754 -14 c0 -30 -24 -45 -49 -29 -12 7 -21 17
-22 23 0 5 -4 1 -9 -10 -8 -19 -9 -19 -9 2 -1 17 6 23 32 26 17 2 38 5 45 5 6
1 12 -6 12 -17z m2474 3 c22 -8 20 -37 -4 -59 -24 -22 -126 -44 -207 -45 -34
0 -95 -4 -135 -10 -40 -5 -192 -15 -338 -21 -146 -6 -323 -13 -393 -16 -125
-5 -137 -4 -197 27 -14 7 -16 37 -3 50 8 9 173 18 328 19 83 0 193 5 245 11
52 5 187 15 300 21 113 6 237 14 275 18 101 11 112 12 129 5z m5436 -10 c0 -8
-4 -12 -10 -9 -5 3 -10 10 -10 16 0 5 5 9 10 9 6 0 10 -7 10 -16z m-7592 -64
c57 0 72 -3 72 -15 0 -18 -9 -18 -118 -2 -46 7 -80 16 -75 20 4 5 17 6 28 3
11 -3 53 -6 93 -6z m3632 -26 c0 -21 -4 -33 -10 -29 -5 3 -10 19 -10 36 0 16
5 29 10 29 6 0 10 -16 10 -36z m3743 30 c8 -8 -3 -34 -14 -34 -5 0 -9 9 -9 20
0 19 11 26 23 14z m-83 -13 c0 -6 -4 -13 -10 -16 -5 -3 -10 -16 -10 -27 0 -12
-3 -19 -6 -15 -9 8 6 67 17 67 5 0 9 -4 9 -9z m197 -38 c-3 -10 -5 -4 -5 12 0
17 2 24 5 18 2 -7 2 -21 0 -30z m-3677 10 c-8 -3 -17 -9 -20 -12 -11 -13 -52
-32 -58 -27 -3 3 -3 7 -1 9 43 26 67 36 79 36 13 -1 13 -1 0 -6z m-111 -40
c22 -5 21 -7 -15 -24 -48 -23 -54 -23 -54 -4 0 8 7 15 15 15 8 0 15 5 15 10 0
12 6 12 39 3z m435 -16 c-6 -16 -33 -31 -41 -23 -3 2 5 14 17 26 23 23 34 22
24 -3z m-740 -9 c9 -37 7 -43 -9 -22 -16 21 -19 44 -6 44 5 0 11 -10 15 -22z
m3976 -3 c0 -14 -4 -25 -10 -25 -11 0 -14 33 -3 43 11 11 13 8 13 -18z m-4680
-44 c5 -11 10 -42 10 -68 0 -57 24 -158 46 -191 14 -22 14 -23 -3 -13 -11 5
-109 10 -223 11 -113 1 -214 3 -225 4 -28 3 -46 15 -40 27 4 5 -1 9 -9 9 -9 0
-16 -4 -16 -8 0 -4 -9 -8 -19 -9 -13 -1 -25 10 -35 31 -8 18 -25 37 -37 42
-19 9 -16 12 33 37 32 16 69 27 95 27 23 0 48 6 55 13 48 43 171 91 258 100
85 9 99 7 110 -12z m978 -58 c-15 -19 -28 -16 -28 5 0 26 10 33 25 19 9 -8 10
-16 3 -24z m-3148 2 c11 -13 10 -14 -4 -9 -9 3 -16 10 -16 15 0 13 6 11 20 -6z
m7070 -5 c0 -5 -7 -10 -16 -10 -8 0 -12 5 -9 10 3 6 10 10 16 10 5 0 9 -4 9
-10z m-7273 -52 c-3 -8 -6 -5 -6 6 -1 11 2 17 5 13 3 -3 4 -12 1 -19z m6985
-8 c19 0 24 -15 8 -25 -9 -6 -50 28 -50 42 0 4 5 2 12 -5 7 -7 20 -12 30 -12z
m-3672 -35 c0 -8 7 -15 16 -15 9 0 14 -6 12 -12 -6 -16 -48 -23 -48 -9 0 6 -7
11 -17 11 -14 0 -14 2 2 20 22 24 35 26 35 5z m138 -8 c2 -10 -3 -17 -12 -17
-10 0 -16 9 -16 21 0 24 23 21 28 -4z m-218 -12 c0 -25 -14 -34 -24 -16 -8 12
3 41 15 41 5 0 9 -11 9 -25z m-1433 -1 c-3 -3 -12 -4 -19 -1 -8 3 -5 6 6 6 11
1 17 -2 13 -5z m5363 -19 c0 -8 5 -15 10 -15 6 0 10 -9 10 -20 0 -28 -13 -25
-33 9 -21 36 -21 41 -2 41 8 0 15 -7 15 -15z m-3870 -41 c0 -18 -26 -18 -33 0
-3 8 -3 16 0 19 9 10 33 -5 33 -19z m106 -20 c12 -62 -30 -110 -73 -85 -17 10
-17 10 0 11 21 0 22 23 1 44 -22 22 -9 54 24 59 15 2 30 5 34 6 4 0 10 -15 14
-35z m3634 15 c0 -5 -7 -9 -15 -9 -8 0 -15 7 -15 15 0 9 6 12 15 9 8 -4 15
-10 15 -15z m-3865 -20 c3 -4 13 -6 23 -3 16 5 16 5 0 -9 -10 -8 -18 -21 -18
-30 0 -27 -21 -30 -42 -7 -15 16 -17 24 -9 29 6 4 9 15 6 24 -5 12 -2 14 14
10 12 -3 24 -9 26 -14z m280 -126 c3 -9 1 -21 -5 -27 -14 -14 -41 19 -33 39 6
17 29 9 38 -12z m-215 -24 c0 -24 -23 -21 -28 4 -2 10 3 17 12 17 10 0 16 -9
16 -21z m480 -7 c0 -23 -32 -112 -40 -112 -13 0 -13 76 0 101 11 19 40 27 40
11z m-427 -35 c2 -6 -2 -18 -9 -25 -12 -11 -14 -8 -14 13 0 26 14 34 23 12z
m-4187 -32 c16 -14 32 -25 37 -25 17 0 5 -28 -15 -33 -15 -4 -26 0 -35 13 -7
10 -20 26 -28 34 -39 39 -3 49 41 11z m4228 -20 c8 -9 13 -22 10 -30 -8 -19
-24 -19 -24 0 0 8 -7 15 -15 15 -9 0 -12 6 -9 15 8 19 19 19 38 0z m-64 -11
c0 -8 -4 -12 -10 -9 -5 3 -10 10 -10 16 0 5 5 9 10 9 6 0 10 -7 10 -16z m-106
-28 c-3 -14 -10 -26 -15 -26 -5 0 -9 -7 -9 -16 0 -10 -6 -14 -15 -10 -8 3 -14
2 -14 -2 4 -24 -2 -35 -12 -25 -13 13 1 45 39 85 30 32 36 31 26 -6z m371 -46
c6 -42 6 -44 -9 -24 -19 27 -30 70 -21 85 11 16 21 -5 30 -61z m-135 30 c0 -5
-4 -10 -10 -10 -5 0 -10 -7 -10 -17 0 -9 -3 -14 -6 -10 -8 8 5 47 17 47 5 0 9
-4 9 -10z m-80 -84 c0 -13 -7 -37 -15 -52 l-15 -29 0 30 c0 40 10 75 21 75 5
0 9 -11 9 -24z m-237 -23 c-4 -10 -13 -24 -20 -31 -11 -11 -13 -11 -13 2 0 13
25 46 35 46 3 0 1 -8 -2 -17z m607 -143 c0 -23 -1 -24 -35 -8 -34 15 -32 28 5
28 23 0 30 -4 30 -20z m-70 -16 c0 -14 -3 -14 -15 -4 -8 7 -15 14 -15 16 0 2
7 4 15 4 8 0 15 -7 15 -16z m-410 -73 c0 -5 -11 -11 -24 -13 -17 -4 -23 -1
-19 9 6 14 43 18 43 4z m294 -92 c3 -16 13 -37 21 -45 19 -19 19 -34 1 -34
-18 0 -68 97 -53 104 22 8 24 6 31 -25z m-204 -53 c0 -1 -20 -3 -45 -3 -35 0
-45 4 -45 17 0 9 2 19 6 22 5 5 84 -28 84 -36z m47 18 c-3 -3 -12 -4 -19 -1
-8 3 -5 6 6 6 11 1 17 -2 13 -5z m124 -54 c6 0 7 -4 4 -10 -12 -19 -25 -10
-24 18 1 16 3 20 6 10 2 -10 9 -18 14 -18z"/>
<path d="M18252 10808 c-16 -16 -15 -43 1 -55 6 -6 29 -16 50 -22 29 -10 37
-18 37 -36 0 -35 -56 -49 -80 -20 -7 8 -17 15 -23 15 -5 0 -2 -9 8 -20 26 -29
80 -27 100 4 22 34 10 53 -46 71 -35 12 -49 22 -49 35 0 32 52 41 82 13 10 -9
18 -12 18 -7 0 19 -24 34 -55 34 -17 0 -36 -5 -43 -12z"/>
<path d="M18784 10735 c0 -49 1 -71 3 -48 2 23 2 64 0 90 -2 26 -3 8 -3 -42z"/>
<path d="M18393 10715 c0 -38 2 -53 4 -32 2 20 2 52 0 70 -2 17 -4 1 -4 -38z"/>
<path d="M18456 10764 c-21 -20 -20 -78 1 -99 10 -11 27 -15 45 -13 21 4 28 1
28 -13 0 -29 -27 -44 -57 -30 -23 11 -25 10 -13 -3 18 -23 56 -20 74 6 11 16
16 46 16 98 0 46 -4 70 -9 61 -6 -9 -11 -10 -15 -2 -10 16 -52 13 -70 -5z m71
-20 c15 -24 15 -29 2 -53 -33 -59 -100 -9 -71 54 15 33 47 32 69 -1z"/>
<path d="M18580 10713 c0 -35 4 -63 10 -63 6 0 10 22 10 49 0 54 17 77 49 66
21 -6 28 -23 34 -85 3 -26 4 -23 5 15 2 67 -8 80 -63 80 l-45 0 0 -62z"/>
<path d="M18832 10715 l1 -70 7 55 c4 30 3 62 -1 70 -5 9 -8 -14 -7 -55z"/>
<path d="M18854 10769 c-4 -8 1 -9 15 -4 34 11 51 -11 51 -66 0 -30 4 -49 11
-49 15 0 6 94 -11 115 -14 17 -56 20 -66 4z"/>
<path d="M11123 5823 c-13 -2 -23 -9 -23 -14 0 -5 -6 -9 -13 -9 -7 0 -21 -6
-31 -13 -23 -17 -13 -61 18 -75 28 -12 41 -5 51 28 4 13 21 37 36 53 16 16 29
30 29 33 0 5 -35 3 -67 -3z"/>
<path d="M11240 5822 c0 -6 5 -22 11 -36 10 -20 9 -30 -5 -50 -21 -33 -20 -36
9 -36 32 0 76 20 98 44 21 24 22 20 -6 50 -25 27 -107 48 -107 28z"/>
<path d="M11156 5754 c-28 -42 -27 -50 9 -56 32 -7 47 12 43 53 -4 45 -22 46
-52 3z"/>
<path d="M11357 5715 c-10 -14 -24 -25 -32 -25 -7 0 -15 -5 -17 -10 -2 -6 -23
-14 -48 -18 -44 -7 -45 -8 -53 -57 -4 -28 -12 -54 -18 -59 -5 -6 -9 -22 -9
-37 0 -15 -4 -31 -10 -34 -25 -16 -8 -27 34 -23 109 13 219 152 200 253 -7 41
-22 44 -47 10z"/>
<path d="M10982 5714 c-33 -36 -19 -135 28 -200 29 -40 120 -83 120 -56 0 4
-7 18 -16 30 -10 15 -16 47 -17 97 -1 70 -2 74 -26 80 -14 4 -37 19 -51 34
-21 21 -29 24 -38 15z"/>
<path d="M11127 5654 c-15 -16 -7 -84 13 -104 18 -18 20 -18 29 -2 5 9 10 37
12 62 4 42 2 45 -21 48 -14 2 -29 0 -33 -4z"/>
<path d="M12254 4724 c9 -8 16 -21 16 -28 0 -15 27 -43 146 -151 48 -44 114
-107 147 -139 82 -83 126 -116 153 -116 13 0 24 3 24 6 0 5 -45 49 -97 93 -15
13 -89 82 -163 155 -142 138 -210 196 -230 196 -7 0 -6 -6 4 -16z"/>
<path d="M10075 4590 c-3 -5 -1 -10 4 -10 6 0 11 5 11 10 0 6 -2 10 -4 10 -3
0 -8 -4 -11 -10z"/>
<path d="M10720 4179 c0 -24 23 -21 28 4 2 10 -3 17 -12 17 -10 0 -16 -9 -16
-21z"/>
<path d="M11615 4110 c-3 -5 -1 -10 4 -10 6 0 11 5 11 10 0 6 -2 10 -4 10 -3
0 -8 -4 -11 -10z"/>
<path d="M15657 3584 c3 -9 9 -12 12 -7 3 4 10 11 15 16 5 4 0 7 -12 7 -15 0
-20 -4 -15 -16z"/>
<path d="M1538 10854 c-78 -42 -77 -188 2 -229 52 -27 121 -18 113 16 -4 14
-14 19 -39 19 -46 0 -74 29 -74 78 0 56 24 84 68 80 29 -2 37 1 40 16 7 36
-58 49 -110 20z"/>
<path d="M2020 10746 l0 -126 30 0 c29 0 30 1 30 50 l0 50 35 0 35 0 0 -50 c0
-49 1 -50 30 -50 l30 0 0 126 0 125 -27 -3 c-26 -3 -28 -7 -31 -50 -3 -47 -4
-48 -37 -48 -33 0 -34 1 -37 48 -3 43 -5 47 -30 50 l-28 3 0 -125z"/>
<path d="M2445 10843 c-3 -10 -1 -19 4 -21 7 -2 11 -42 11 -102 l0 -99 34 -7
c81 -15 129 22 128 97 -1 51 -22 76 -73 84 -35 6 -39 10 -39 36 0 25 -4 29
-29 29 -18 0 -31 -6 -36 -17z m123 -141 c-3 -32 -7 -37 -30 -40 -27 -3 -28 -2
-28 42 0 47 12 60 43 44 14 -7 17 -19 15 -46z"/>
<path d="M983 10823 c76 -6 54 -22 -35 -26 l-83 -3 93 -2 c113 -2 125 -21 15
-24 -43 -1 -61 -3 -40 -5 20 -2 37 -8 37 -12 0 -10 -35 -21 -67 -21 -13 0 -23
-4 -23 -10 0 -10 49 -14 117 -10 23 1 36 -5 45 -19 18 -30 117 -31 136 -1 16
26 57 26 75 -1 10 -13 23 -19 39 -17 18 2 23 9 23 33 0 28 -5 32 -60 51 -33
11 -78 32 -100 47 -36 25 -47 27 -130 25 -52 -1 -70 -3 -42 -5z"/>
<path d="M1702 10792 c-7 -5 -10 -16 -6 -26 5 -13 14 -15 34 -11 18 4 31 1 40
-10 11 -13 8 -15 -17 -15 -37 0 -73 -25 -73 -51 0 -52 46 -78 116 -65 l34 7 0
74 c0 65 -3 76 -22 89 -24 17 -85 21 -106 8z m78 -111 c0 -24 -13 -33 -34 -25
-19 7 -21 30 -3 37 25 11 37 6 37 -12z"/>
<path d="M1855 10782 c-3 -9 -1 -18 4 -20 7 -2 11 -35 11 -78 0 -72 1 -74 25
-74 23 0 25 3 25 51 0 60 13 89 40 89 14 0 20 7 20 24 0 22 -4 23 -59 24 -47
1 -61 -3 -66 -16z"/>
<path d="M2250 10753 c0 -72 16 -118 46 -131 31 -15 64 -15 98 -2 25 9 26 12
26 95 l0 85 -30 0 -30 0 0 -71 c0 -67 -1 -70 -22 -67 -21 3 -23 9 -26 71 -3
67 -3 67 -32 67 -29 0 -30 -2 -30 -47z"/>
<path d="M940 10691 c0 -5 -10 -12 -22 -14 -17 -3 -14 -5 10 -6 22 -1 32 3 32
14 0 8 -4 15 -10 15 -5 0 -10 -4 -10 -9z"/>
<path d="M981 10686 c-15 -18 -3 -46 20 -46 25 0 35 26 19 45 -15 19 -24 19
-39 1z"/>
<path d="M1201 10690 c-19 -11 -9 -45 14 -45 13 0 21 8 23 21 3 23 -17 37 -37
24z"/>
<path d="M1450 8745 l0 -55 60 0 60 0 0 55 0 55 -60 0 -60 0 0 -55z"/>
<path d="M930 8445 l0 -345 65 0 65 0 0 140 0 140 115 0 115 0 0 65 0 65 -115
0 -115 0 0 75 0 75 145 0 145 0 0 65 0 65 -210 0 -210 0 0 -345z"/>
<path d="M2660 8696 l0 -95 -35 15 c-118 49 -267 -20 -311 -143 -16 -46 -18
-164 -4 -215 16 -55 69 -120 120 -145 58 -30 150 -31 203 -4 32 16 39 17 44 5
3 -10 22 -14 59 -14 l54 0 0 345 0 345 -65 0 -65 0 0 -94z m-50 -191 c43 -22
62 -66 62 -146 0 -112 -44 -164 -130 -156 -73 8 -112 64 -112 162 1 114 92
185 180 140z"/>
<path d="M3420 8445 l0 -345 55 0 c43 0 55 3 55 15 0 13 6 12 40 -5 52 -27
147 -27 199 -1 49 25 105 88 122 137 23 64 18 190 -9 246 -56 114 -188 169
-297 124 l-35 -15 0 95 0 94 -65 0 -65 0 0 -345z m275 61 c51 -21 75 -68 75
-143 0 -103 -44 -163 -120 -163 -75 0 -120 60 -120 160 0 124 70 185 165 146z"/>
<path d="M5220 8445 l0 -345 65 0 65 0 0 120 c0 66 3 120 8 120 4 -1 45 -55
92 -120 l84 -120 84 0 84 0 -51 65 c-28 36 -74 94 -101 129 l-50 64 90 125
c49 69 90 128 90 131 0 3 -33 6 -74 6 l-74 0 -89 -126 -88 -126 -3 211 -2 211
-65 0 -65 0 0 -345z"/>
<path d="M1904 8611 c-23 -10 -45 -24 -48 -30 -12 -19 -26 -12 -26 14 0 24 -3
25 -55 25 l-55 0 0 -260 0 -260 65 0 65 0 0 155 c0 168 9 209 51 239 26 18 90
21 120 6 42 -23 53 -66 57 -237 l4 -163 60 0 59 0 -3 204 -3 204 -30 43 c-16
23 -46 50 -65 60 -46 25 -141 25 -196 0z"/>
<path d="M4156 8615 c-176 -63 -225 -317 -87 -455 75 -74 196 -93 297 -46 202
94 187 427 -23 502 -49 17 -138 17 -187 -1z m162 -121 c74 -52 74 -216 0 -268
-13 -9 -43 -16 -71 -16 -42 0 -54 5 -81 33 -60 59 -56 190 6 242 35 30 110 34
146 9z"/>
<path d="M4757 8616 c-165 -61 -222 -299 -106 -440 100 -120 312 -114 406 12
39 51 53 98 53 173 0 155 -95 258 -244 266 -45 2 -85 -2 -109 -11z m171 -131
c41 -35 58 -106 42 -175 -16 -68 -55 -100 -119 -100 -81 0 -124 52 -124 150 0
98 43 150 124 150 36 0 55 -6 77 -25z"/>
<path d="M6386 8615 c-176 -63 -225 -317 -87 -455 75 -74 196 -93 297 -46 202
94 187 427 -23 502 -49 17 -138 17 -187 -1z m162 -121 c35 -24 55 -74 55 -134
0 -99 -43 -150 -126 -150 -42 0 -54 5 -81 33 -60 59 -56 190 6 242 35 30 110
34 146 9z"/>
<path d="M1450 8360 l0 -260 60 0 60 0 0 260 0 260 -60 0 -60 0 0 -260z"/>
<path d="M6850 8360 l0 -260 65 0 65 0 0 158 c1 108 5 164 14 180 20 37 66 62
114 62 l42 0 0 60 c0 59 -1 60 -28 60 -48 0 -95 -19 -129 -52 l-33 -32 0 42 0
42 -55 0 -55 0 0 -260z"/>
<path d="M2920 8165 l0 -65 30 0 c25 0 30 -4 30 -25 0 -18 -9 -31 -30 -43 -39
-22 -42 -62 -4 -62 67 0 94 49 94 175 l0 85 -60 0 -60 0 0 -65z"/>
<path d="M5740 8165 l0 -65 35 0 c31 0 35 -3 35 -25 0 -20 -25 -46 -56 -59 -1
-1 -5 -11 -8 -23 -7 -21 -4 -23 28 -23 69 0 96 50 96 176 l0 84 -65 0 -65 0 0
-65z"/>
<path d="M17140 7894 c-148 -17 -251 -40 -305 -68 -54 -28 -135 -102 -135
-122 0 -7 -7 -14 -15 -18 -8 -3 -15 -12 -15 -21 0 -8 -4 -15 -9 -15 -5 0 -13
-10 -17 -22 -4 -13 -10 -25 -13 -28 -10 -7 -41 -76 -41 -89 0 -6 -4 -11 -9
-11 -5 0 -12 -13 -16 -30 -4 -16 -11 -30 -16 -30 -5 0 -9 -6 -9 -14 0 -7 -11
-33 -24 -58 -13 -25 -27 -59 -31 -76 -3 -18 -11 -32 -16 -32 -5 0 -9 -8 -9
-19 0 -10 -7 -32 -15 -47 -8 -16 -15 -37 -15 -46 0 -10 -4 -18 -9 -18 -5 0
-12 -16 -16 -36 -3 -20 -11 -45 -16 -55 -5 -11 -13 -28 -19 -39 -5 -10 -13
-38 -16 -62 -4 -24 -10 -45 -13 -48 -3 -3 -11 -14 -17 -25 -8 -14 -25 -22 -60
-26 l-49 -6 58 -1 c31 -1 60 -3 64 -4 4 -2 11 17 16 42 4 25 12 54 17 65 4 11
16 45 26 75 10 30 22 59 26 65 4 5 8 16 8 25 0 8 7 28 15 44 8 15 15 33 15 38
0 6 7 26 16 46 9 21 22 51 29 67 7 17 32 69 54 116 23 47 41 90 41 96 0 6 3
13 8 15 4 2 16 21 27 43 11 22 26 46 32 53 7 7 13 20 13 28 0 8 4 14 8 14 4 0
16 14 26 31 10 18 26 39 35 48 23 23 116 81 130 81 6 0 19 4 29 9 9 5 55 17
102 25 101 19 510 23 510 6 0 -7 6 -7 18 -1 18 10 67 6 307 -19 50 -6 122 -14
160 -19 39 -6 93 -10 120 -9 l50 1 -60 8 c-33 4 -105 13 -160 19 -55 6 -122
15 -150 20 -117 21 -574 45 -665 34z"/>
<path d="M14245 7735 c24 -8 125 -11 125 -3 0 4 -30 8 -67 7 -38 0 -63 -2 -58
-4z"/>
<path d="M13570 7340 c0 -6 7 -10 15 -10 8 0 15 2 15 4 0 2 -7 6 -15 10 -8 3
-15 1 -15 -4z"/>
<path d="M2530 7250 l0 -70 -45 0 -45 0 0 -49 0 -50 43 -3 42 -3 5 -165 c5
-181 13 -205 68 -234 38 -20 112 -29 161 -21 l41 7 0 51 0 52 -56 0 c-87 0
-94 14 -94 181 l0 134 75 0 75 0 0 50 0 50 -75 0 -75 0 0 70 0 70 -60 0 -60 0
0 -70z"/>
<path d="M13398 7215 c-16 -13 -24 -27 -19 -30 6 -3 24 8 41 25 36 36 17 40
-22 5z"/>
<path d="M1435 7167 c-100 -48 -144 -126 -145 -250 0 -88 13 -127 61 -182 103
-117 312 -113 400 8 16 22 29 43 29 47 0 4 -27 14 -59 23 l-59 17 -32 -30
c-28 -26 -40 -30 -87 -30 -48 0 -58 4 -83 30 -15 16 -30 41 -32 55 l-5 25 185
0 185 0 -6 68 c-14 150 -95 234 -231 240 -59 2 -80 -1 -121 -21z m175 -102
c17 -9 30 -17 30 -18 0 -1 4 -17 9 -35 l10 -32 -115 0 c-125 0 -132 4 -93 54
37 47 104 60 159 31z"/>
<path d="M2064 7171 c-23 -10 -45 -24 -48 -30 -12 -19 -26 -12 -26 14 0 24 -3
25 -55 25 l-55 0 0 -260 0 -260 65 0 65 0 0 148 c0 165 9 212 47 242 37 29
106 27 138 -4 35 -35 45 -87 45 -243 l0 -143 66 0 67 0 -5 188 c-4 146 -9 196
-22 227 -22 50 -52 84 -93 101 -46 20 -140 17 -189 -5z"/>
<path d="M3215 7172 c-45 -21 -105 -84 -105 -110 0 -12 16 -22 53 -33 52 -15
53 -15 70 8 46 60 187 42 187 -25 0 -5 -44 -16 -97 -26 -118 -20 -169 -42
-207 -87 -26 -30 -28 -38 -24 -100 3 -55 8 -73 28 -94 38 -41 74 -55 140 -55
67 0 115 16 144 49 26 29 36 26 36 -9 0 -29 1 -30 51 -30 l50 0 -3 213 c-3
201 -4 214 -25 243 -34 47 -85 68 -178 71 -62 3 -89 -1 -120 -15z m205 -292
c0 -70 -63 -130 -136 -130 -72 0 -98 61 -44 102 20 14 111 39 173 47 4 1 7 -8
7 -19z"/>
<path d="M3993 7173 c-56 -19 -126 -97 -143 -157 -8 -28 -11 -77 -8 -126 6
-99 39 -159 112 -204 84 -53 215 -48 294 11 29 22 72 88 72 111 0 5 -28 15
-62 22 -52 11 -63 11 -66 0 -12 -36 -51 -60 -97 -60 -61 0 -83 13 -106 63 -23
52 -24 114 -3 167 29 71 115 93 173 44 17 -14 31 -32 31 -40 0 -8 5 -14 11
-14 26 0 119 32 119 41 0 17 -37 83 -57 101 -60 54 -181 73 -270 41z"/>
<path d="M4515 7172 c-45 -21 -105 -84 -105 -110 0 -12 16 -22 53 -33 52 -15
53 -15 70 8 46 60 187 42 187 -25 0 -5 -44 -16 -97 -26 -118 -20 -169 -42
-207 -87 -26 -30 -28 -38 -24 -100 3 -55 8 -73 28 -94 38 -41 74 -55 140 -55
67 0 115 16 144 49 26 29 36 26 36 -9 0 -29 1 -30 51 -30 l50 0 -3 213 c-3
201 -4 214 -25 243 -34 47 -85 68 -178 71 -62 3 -89 -1 -120 -15z m205 -292
c0 -70 -63 -130 -136 -130 -72 0 -98 61 -44 102 20 14 111 39 173 47 4 1 7 -8
7 -19z"/>
<path d="M930 6920 l0 -260 65 0 65 0 0 158 c1 108 5 164 14 180 20 37 66 62
114 62 l42 0 0 60 c0 59 -1 60 -28 60 -48 0 -95 -19 -129 -52 l-33 -32 0 42 0
42 -55 0 -55 0 0 -260z"/>
<path d="M4970 6920 l0 -260 65 0 65 0 0 145 c0 166 10 203 62 235 18 11 50
20 71 20 l37 0 0 60 0 60 -32 0 c-42 -1 -111 -32 -130 -59 -18 -26 -28 -17
-28 26 l0 33 -55 0 -55 0 0 -260z"/>
<path d="M5550 6960 l0 -50 145 0 145 0 0 50 0 50 -145 0 -145 0 0 -50z"/>
<path d="M19075 6870 c-3 -5 3 -10 15 -10 12 0 18 5 15 10 -3 6 -10 10 -15 10
-5 0 -12 -4 -15 -10z"/>
<path d="M18980 6836 c-14 -13 -36 -39 -50 -57 -62 -81 -120 -129 -157 -129
-13 0 -23 -4 -23 -10 0 -12 6 -12 53 1 42 11 81 46 116 102 12 20 27 37 32 37
5 0 9 5 9 11 0 12 15 28 50 52 15 11 19 17 10 17 -9 0 -26 -11 -40 -24z"/>
<path d="M19203 6853 c9 -2 23 -2 30 0 6 3 -1 5 -18 5 -16 0 -22 -2 -12 -5z"/>
<path d="M19298 6833 c6 -2 18 -2 25 0 6 3 1 5 -13 5 -14 0 -19 -2 -12 -5z"/>
<path d="M19001 6803 c-12 -16 -24 -32 -29 -38 -32 -41 -51 -74 -45 -78 5 -3
28 -1 53 3 25 5 75 9 112 10 l66 0 -26 65 -25 65 -43 0 c-35 0 -46 -5 -63 -27z"/>
<path d="M19141 6814 c0 -11 10 -39 22 -64 l22 -45 110 -1 c113 -1 145 8 145
43 0 7 5 13 10 13 6 0 10 4 10 9 0 12 -46 28 -105 37 -27 3 -61 9 -75 11 -14
2 -51 7 -82 10 -52 5 -58 3 -57 -13z m126 -60 c-3 -3 -12 -4 -19 -1 -8 3 -5 6
6 6 11 1 17 -2 13 -5z m56 -1 c-7 -2 -19 -2 -25 0 -7 3 -2 5 12 5 14 0 19 -2
13 -5z"/>
<path d="M19468 6803 c6 -2 18 -2 25 0 6 3 1 5 -13 5 -14 0 -19 -2 -12 -5z"/>
<path d="M19523 6783 c9 -2 23 -2 30 0 6 3 -1 5 -18 5 -16 0 -22 -2 -12 -5z"/>
<path d="M12318 6703 c7 -3 16 -2 19 1 4 3 -2 6 -13 5 -11 0 -14 -3 -6 -6z"/>
<path d="M14218 6673 c23 -2 59 -2 80 0 20 2 1 4 -43 4 -44 0 -61 -2 -37 -4z"/>
<path d="M14093 6653 c15 -2 39 -2 55 0 15 2 2 4 -28 4 -30 0 -43 -2 -27 -4z"/>
<path d="M14795 6646 c-77 -5 -142 -12 -145 -16 -3 -5 -34 -11 -70 -14 -36 -3
-92 -9 -125 -14 -59 -9 -59 -9 -15 -10 25 -1 83 3 130 8 47 6 130 15 185 20
140 14 258 29 264 36 3 3 -15 4 -39 2 -25 -2 -108 -7 -185 -12z"/>
<path d="M15490 6644 c-8 -2 -73 -11 -145 -19 -199 -23 -275 -33 -325 -44 -25
-5 -88 -17 -140 -27 -52 -9 -117 -23 -145 -30 l-50 -13 55 0 c30 -1 82 4 115
10 85 15 173 27 297 42 58 6 110 15 114 20 4 4 26 7 48 7 23 0 61 5 86 11 25
6 74 15 110 20 36 5 88 13 115 17 47 9 46 9 -35 10 -47 0 -92 -2 -100 -4z"/>
<path d="M14620 6500 c-11 -7 -7 -10 17 -10 17 0 35 5 38 10 8 13 -35 13 -55
0z"/>
<path d="M16381 6494 c0 -11 3 -14 6 -6 3 7 2 16 -1 19 -3 4 -6 -2 -5 -13z"/>
<path d="M19096 6324 c-24 -23 -19 -26 14 -9 17 9 30 18 30 20 0 11 -30 4 -44
-11z"/>
<path d="M19002 6268 c-18 -18 -15 -63 6 -80 9 -9 33 -19 52 -23 19 -3 50 -14
67 -23 32 -16 33 -16 48 5 12 17 25 22 53 20 38 -1 82 25 82 49 0 15 -263 7
-268 -8 -5 -10 -32 10 -32 24 0 16 24 35 39 30 8 -3 11 0 7 7 -9 15 -39 14
-54 -1z"/>
<path d="M17774 6241 c4 -5 1 -12 -4 -14 -6 -3 -5 -4 2 -3 15 3 23 26 8 26 -6
0 -9 -4 -6 -9z"/>
<path d="M17900 6210 c0 -5 9 -10 20 -10 11 0 20 5 20 10 0 6 -9 10 -20 10
-11 0 -20 -4 -20 -10z"/>
<path d="M17719 6201 c-53 -17 -69 -31 -69 -61 0 -41 41 -80 85 -80 19 0 49
-9 66 -19 35 -22 69 -14 69 16 0 13 7 14 41 9 35 -6 45 -3 80 25 57 45 51 52
-38 45 -247 -21 -256 -21 -260 -8 -3 6 -12 12 -20 12 -12 0 -12 2 1 15 9 10
34 15 71 15 35 0 54 4 50 10 -3 6 -15 10 -26 10 -11 0 -17 5 -14 10 7 11 1 11
-36 1z"/>
<path d="M19745 6000 c3 -5 8 -10 11 -10 2 0 4 5 4 10 0 6 -5 10 -11 10 -5 0
-7 -4 -4 -10z"/>
<path d="M19778 5983 c7 -3 16 -2 19 1 4 3 -2 6 -13 5 -11 0 -14 -3 -6 -6z"/>
<path d="M18084 5760 c0 -96 2 -136 3 -87 2 48 2 126 0 175 -1 48 -3 8 -3 -88z"/>
<path d="M2150 5865 l0 -55 60 0 60 0 0 55 0 55 -60 0 -60 0 0 -55z"/>
<path d="M3520 5570 l0 -350 65 0 65 0 0 350 0 350 -65 0 -65 0 0 -350z"/>
<path d="M2980 5565 l0 -345 65 0 65 0 0 120 c0 66 3 120 8 120 4 0 45 -54 92
-120 l85 -119 83 -1 83 0 -95 124 c-53 69 -96 130 -96 135 0 10 81 127 158
229 l24 32 -80 0 -80 0 -83 -120 c-46 -66 -87 -120 -91 -120 -4 0 -8 92 -8
205 l0 205 -65 0 -65 0 0 -345z"/>
<path d="M6030 5816 l0 -95 -35 15 c-45 18 -126 18 -173 -2 -47 -19 -97 -67
-125 -119 -18 -33 -22 -57 -22 -135 0 -88 2 -99 31 -150 45 -80 97 -113 183
-118 53 -3 79 0 115 16 37 17 46 18 46 6 0 -10 14 -14 55 -14 l55 0 0 345 0
345 -65 0 -65 0 0 -94z m-19 -214 c31 -34 44 -100 33 -168 -13 -91 -97 -139
-172 -100 -97 50 -88 252 13 297 37 16 98 2 126 -29z"/>
<path d="M10167 5740 c-37 -35 -33 -64 13 -101 30 -24 40 -27 70 -20 29 6 34
11 32 29 -2 12 2 22 7 22 6 0 11 11 11 25 0 16 -6 25 -15 25 -8 0 -15 4 -15
10 0 5 -11 12 -25 16 -14 3 -25 10 -25 15 0 17 -25 7 -53 -21z"/>
<path d="M1044 5731 c-188 -86 -190 -406 -3 -502 46 -23 135 -25 184 -5 l35
15 0 -125 0 -124 65 0 65 0 0 375 0 375 -55 0 c-41 0 -55 -4 -55 -15 0 -11 -8
-11 -42 5 -55 25 -140 25 -194 1z m192 -122 c45 -42 56 -159 23 -232 -32 -70
-151 -77 -194 -11 -55 84 -31 221 46 262 33 18 96 8 125 -19z"/>
<path d="M2553 5733 c-56 -19 -126 -97 -143 -157 -8 -28 -11 -77 -8 -126 6
-99 39 -159 112 -204 84 -53 215 -48 294 11 29 22 72 88 72 111 0 5 -28 15
-62 22 -52 11 -63 11 -66 0 -12 -36 -51 -60 -97 -60 -61 0 -83 13 -106 63 -23
52 -24 114 -3 167 29 71 115 93 173 44 17 -14 31 -32 31 -40 0 -8 5 -14 11
-14 26 0 119 32 119 41 0 17 -37 83 -57 101 -60 54 -181 73 -270 41z"/>
<path d="M4647 5735 c-45 -15 -83 -48 -104 -89 -17 -33 -13 -38 49 -59 44 -15
47 -14 60 4 35 53 157 55 180 3 6 -13 9 -26 7 -28 -2 -2 -47 -11 -99 -20 -171
-30 -225 -73 -225 -181 0 -110 57 -158 182 -153 62 3 78 8 117 35 l46 33 0
-30 c0 -30 1 -30 55 -30 l55 0 0 183 c0 101 -5 200 -11 222 -14 50 -64 100
-114 114 -54 15 -152 13 -198 -4z m193 -306 c0 -68 -57 -119 -134 -119 -37 0
-48 4 -62 25 -33 50 6 85 120 110 33 7 64 14 69 14 4 1 7 -13 7 -30z"/>
<path d="M5291 5739 c-13 -5 -36 -18 -52 -30 l-29 -20 0 25 c0 25 -3 26 -55
26 l-55 0 0 -260 0 -260 59 0 59 0 4 163 c5 177 14 213 63 235 37 17 86 15
114 -4 42 -30 51 -71 51 -239 l0 -155 65 0 65 0 0 165 c0 90 -5 187 -11 215
-13 59 -57 116 -106 136 -37 16 -136 17 -172 3z"/>
<path d="M1522 5542 l3 -199 30 -48 c43 -68 82 -87 176 -83 63 2 83 8 117 31
l42 27 0 -25 c0 -24 3 -25 55 -25 l55 0 0 260 0 260 -65 0 -65 0 0 -165 c0
-216 -13 -245 -112 -245 -90 1 -108 44 -108 255 l0 155 -66 0 -66 0 4 -198z"/>
<path d="M2150 5480 l0 -260 60 0 60 0 0 260 0 260 -60 0 -60 0 0 -260z"/>
<path d="M3761 5688 c11 -29 58 -146 104 -259 l84 -205 -40 -108 c-21 -59 -39
-112 -39 -117 0 -6 24 -9 56 -7 l57 3 143 365 c79 201 144 369 144 373 0 4
-28 7 -62 5 l-63 -3 -63 -165 c-35 -91 -66 -168 -70 -172 -4 -4 -37 70 -73
165 l-66 172 -66 3 -67 3 21 -53z"/>
<path d="M14530 5663 c8 -4 21 -12 28 -20 7 -7 20 -13 28 -13 8 0 14 -4 14
-10 0 -5 6 -10 14 -10 8 0 16 -3 18 -7 7 -16 70 -54 81 -49 9 3 8 5 -1 5 -7 1
-20 7 -27 14 -27 23 -40 33 -93 65 -29 18 -58 32 -65 31 -7 0 -6 -3 3 -6z"/>
<path d="M14720 5533 c8 -3 17 -9 20 -12 3 -4 17 -14 32 -24 23 -14 26 -14 22
-2 -4 8 -10 15 -16 15 -5 0 -16 7 -24 15 -9 8 -23 15 -32 14 -14 0 -14 -2 -2
-6z"/>
<path d="M18068 5283 c0 -109 -2 -218 -3 -243 -1 -25 2 -70 6 -100 3 -30 7 71
8 227 0 155 4 288 7 297 3 9 1 16 -5 16 -8 0 -11 -61 -13 -197z"/>
<path d="M14848 5440 c42 -26 56 -26 17 0 -16 11 -34 20 -40 20 -5 0 5 -9 23
-20z"/>
<path d="M16593 4960 c0 -25 2 -35 4 -22 2 12 2 32 0 45 -2 12 -4 2 -4 -23z"/>
<path d="M14180 4884 c0 -12 7 -27 15 -34 20 -17 21 9 0 36 -14 19 -14 19 -15
-2z"/>
<path d="M2600 4425 l0 -55 60 0 60 0 0 55 0 55 -60 0 -60 0 0 -55z"/>
<path d="M2880 4130 l0 -350 65 0 65 0 0 350 0 350 -65 0 -65 0 0 -350z"/>
<path d="M3750 4210 l0 -260 65 0 65 0 0 260 0 260 -65 0 -65 0 0 -260z"/>
<path d="M1067 4296 c-123 -44 -192 -191 -157 -335 34 -142 184 -223 337 -181
50 15 143 93 143 122 0 10 -19 21 -57 31 l-56 16 -34 -29 c-28 -25 -43 -30
-83 -30 -40 0 -55 5 -79 28 -17 15 -33 39 -37 55 l-6 27 182 0 183 0 -5 73
c-10 153 -97 238 -243 237 -27 -1 -67 -7 -88 -14z m167 -118 c14 -13 28 -35
32 -50 l6 -28 -116 0 c-64 0 -116 2 -116 5 0 20 35 67 58 79 42 23 106 20 136
-6z"/>
<path d="M1605 4292 c-45 -21 -105 -84 -105 -110 0 -12 16 -22 53 -33 52 -15
53 -15 70 8 46 60 187 42 187 -25 0 -5 -44 -16 -97 -26 -118 -20 -169 -42
-207 -87 -26 -30 -28 -38 -24 -100 3 -55 8 -73 28 -94 38 -41 74 -55 140 -55
67 0 115 16 144 49 26 29 36 26 36 -9 0 -29 1 -30 51 -30 l50 0 -3 213 c-3
201 -4 214 -25 243 -34 47 -85 68 -178 71 -62 3 -89 -1 -120 -15z m205 -292
c0 -70 -63 -130 -136 -130 -72 0 -98 61 -44 102 20 14 111 39 173 47 4 1 7 -8
7 -19z"/>
<path d="M2162 4298 c-78 -26 -126 -113 -103 -188 15 -52 58 -80 176 -115 99
-30 115 -39 115 -66 0 -52 -105 -70 -152 -26 -14 13 -27 29 -29 36 -3 9 -21
11 -68 5 l-63 -7 6 -30 c9 -43 48 -91 93 -113 29 -14 60 -19 128 -19 103 0
151 18 187 68 28 40 35 114 14 155 -23 44 -52 61 -163 94 -105 31 -123 41
-123 69 0 53 143 51 157 -2 5 -19 11 -20 52 -14 90 12 97 21 61 79 -31 51 -92
79 -180 82 -41 2 -90 -2 -108 -8z"/>
<path d="M2600 4040 l0 -260 60 0 60 0 0 260 0 260 -60 0 -60 0 0 -260z"/>
<path d="M3121 4248 c11 -29 58 -146 104 -259 l84 -205 -40 -108 c-21 -59 -39
-112 -39 -117 0 -6 24 -9 56 -7 l57 3 143 365 c79 201 144 369 144 373 0 4
-28 7 -62 5 l-63 -3 -63 -165 c-35 -91 -66 -168 -70 -172 -4 -4 -37 70 -73
165 l-66 172 -66 3 -67 3 21 -53z"/>
<path d="M3750 3835 l0 -55 65 0 65 0 0 55 0 55 -65 0 -65 0 0 -55z"/>
<path d="M940 2957 c-39 -13 -57 -48 -46 -90 5 -20 18 -30 64 -46 31 -12 68
-27 82 -34 48 -25 31 -89 -27 -100 -41 -8 -93 11 -105 39 -13 27 -28 32 -28 9
0 -9 12 -27 26 -40 39 -36 124 -36 159 0 34 33 33 77 -1 104 -15 12 -30 21
-35 21 -5 0 -33 9 -64 21 -49 18 -55 23 -55 49 0 23 7 33 31 45 41 22 83 11
113 -28 14 -17 28 -28 32 -25 12 13 -27 59 -61 74 -40 16 -40 16 -85 1z"/>
<path d="M2220 2820 c0 -93 4 -150 10 -150 6 0 10 57 10 150 0 93 -4 150 -10
150 -6 0 -10 -57 -10 -150z"/>
<path d="M5490 2820 c0 -93 4 -150 10 -150 6 0 10 57 10 150 0 93 -4 150 -10
150 -6 0 -10 -57 -10 -150z"/>
<path d="M2310 2951 c0 -6 5 -13 10 -16 6 -3 10 1 10 9 0 9 -4 16 -10 16 -5 0
-10 -4 -10 -9z"/>
<path d="M6710 2951 c0 -6 5 -13 10 -16 6 -3 10 1 10 9 0 9 -4 16 -10 16 -5 0
-10 -4 -10 -9z"/>
<path d="M1160 2920 c0 -25 -4 -30 -25 -30 -14 0 -25 -4 -25 -10 0 -5 11 -10
25 -10 25 0 25 -1 25 -84 0 -64 4 -88 16 -100 17 -18 74 -22 74 -6 0 6 -13 10
-29 10 -36 0 -41 12 -41 106 l0 74 35 0 c19 0 35 5 35 10 0 6 -16 10 -35 10
-32 0 -35 2 -35 30 0 17 -4 30 -10 30 -5 0 -10 -13 -10 -30z"/>
<path d="M5130 2920 c0 -23 -5 -30 -19 -30 -11 0 -23 -4 -26 -10 -4 -6 5 -10
19 -10 25 0 26 -1 26 -72 0 -91 14 -122 58 -126 18 -2 32 1 32 7 0 6 -11 11
-25 11 -34 0 -45 27 -45 109 l0 71 35 0 c19 0 35 5 35 10 0 6 -16 10 -35 10
-32 0 -35 2 -35 30 0 17 -4 30 -10 30 -5 0 -10 -13 -10 -30z"/>
<path d="M1298 2884 c-11 -10 -10 -214 1 -214 5 0 11 36 13 80 5 84 23 120 60
120 10 0 18 5 18 10 0 15 -33 12 -57 -5 -19 -14 -22 -13 -25 1 -2 9 -6 12 -10
8z"/>
<path d="M1453 2866 c-25 -22 -28 -31 -28 -84 0 -50 4 -65 24 -86 33 -35 98
-36 138 -2 15 13 25 28 20 32 -4 4 -17 -2 -30 -13 -31 -28 -52 -34 -85 -22
-26 9 -52 44 -52 69 0 6 40 10 90 10 50 0 90 3 90 8 0 29 -24 84 -43 97 -33
23 -91 19 -124 -9z m119 -13 c10 -9 18 -27 18 -40 0 -22 -3 -23 -75 -23 -83 0
-91 7 -54 54 24 31 81 36 111 9z"/>
<path d="M1680 2870 c-20 -20 -26 -40 -12 -40 4 0 13 9 20 20 19 31 86 28 108
-5 21 -33 13 -41 -47 -48 -67 -8 -99 -29 -99 -66 0 -15 8 -35 18 -44 24 -22
85 -22 117 -1 23 15 25 15 25 0 0 -9 5 -16 11 -16 7 0 10 29 7 89 -4 109 -18
131 -85 131 -30 0 -49 -6 -63 -20z m125 -119 c-13 -53 -61 -80 -109 -61 -29
11 -36 50 -12 70 16 12 105 29 119 22 5 -2 6 -16 2 -31z"/>
<path d="M1887 2883 c-11 -11 -8 -213 3 -213 6 0 10 32 10 76 0 81 9 107 41
124 16 9 26 8 45 -5 22 -14 24 -21 24 -105 0 -53 4 -90 10 -90 6 0 10 32 10
76 0 81 9 107 41 124 16 9 26 8 45 -5 22 -14 24 -21 24 -105 0 -53 4 -90 10
-90 6 0 10 38 10 93 0 78 -3 97 -18 110 -24 22 -76 22 -97 1 -15 -15 -17 -15
-34 0 -19 18 -68 21 -91 6 -9 -5 -17 -5 -20 1 -4 5 -9 6 -13 2z"/>
<path d="M2310 2780 c0 -67 4 -110 10 -110 6 0 10 43 10 110 0 67 -4 110 -10
110 -6 0 -10 -43 -10 -110z"/>
<path d="M2401 2783 c-1 -70 3 -113 9 -113 6 0 10 34 10 83 0 95 13 117 67
117 50 0 67 -30 72 -121 2 -44 8 -79 13 -79 6 0 9 31 7 79 -5 99 -26 134 -83
139 -22 2 -47 -3 -61 -12 -22 -14 -24 -14 -28 2 -3 9 -5 -34 -6 -95z"/>
<path d="M2653 2866 c-25 -22 -28 -31 -28 -84 0 -50 4 -65 24 -86 33 -35 98
-36 138 -2 15 13 25 28 20 32 -4 4 -17 -2 -30 -13 -31 -28 -52 -34 -85 -22
-26 9 -52 44 -52 69 0 6 40 10 90 10 50 0 90 3 90 8 0 29 -24 84 -43 97 -33
23 -91 19 -124 -9z m119 -13 c10 -9 18 -27 18 -40 0 -22 -3 -23 -75 -23 -83 0
-91 7 -54 54 24 31 81 36 111 9z"/>
<path d="M2930 2883 c0 -4 18 -52 41 -107 43 -104 43 -111 12 -192 -3 -8 -1
-14 4 -14 9 0 123 293 123 313 0 4 -4 7 -8 7 -5 0 -19 -30 -32 -67 -49 -141
-42 -138 -85 -29 -21 53 -42 96 -47 96 -4 0 -8 -3 -8 -7z"/>
<path d="M3166 2859 c-41 -48 -34 -140 13 -176 23 -17 92 -16 118 2 33 23 47
81 34 133 -14 51 -43 72 -97 72 -35 0 -47 -5 -68 -31z m138 -33 c17 -36 18
-43 5 -80 -18 -51 -52 -71 -98 -55 -17 6 -36 19 -41 29 -21 40 -7 121 24 143
6 4 29 6 51 5 36 -3 42 -7 59 -42z"/>
<path d="M3380 2815 c0 -79 16 -127 45 -139 30 -11 78 -6 97 11 17 15 18 15
18 0 0 -10 5 -17 10 -17 6 0 10 43 10 110 0 67 -4 110 -10 110 -6 0 -10 -33
-10 -78 0 -97 -14 -122 -70 -122 -56 0 -70 25 -70 122 0 45 -4 78 -10 78 -6 0
-10 -32 -10 -75z"/>
<path d="M3620 2780 c0 -67 4 -110 10 -110 6 0 10 30 10 69 0 91 11 120 50
127 16 4 30 10 30 15 0 14 -34 10 -58 -7 -20 -14 -22 -14 -22 0 0 9 -4 16 -10
16 -6 0 -10 -43 -10 -110z"/>
<path d="M3859 2864 c-20 -21 -24 -36 -24 -84 0 -77 27 -110 91 -110 42 0 97
31 82 46 -5 4 -16 0 -25 -8 -28 -23 -50 -28 -81 -17 -52 18 -70 104 -31 153
26 34 92 37 111 6 15 -23 28 -26 28 -6 0 24 -41 46 -85 46 -32 0 -47 -6 -66
-26z"/>
<path d="M4080 2865 c-13 -14 -20 -28 -17 -32 4 -3 16 3 27 15 28 29 95 31
110 3 21 -40 13 -48 -51 -55 -88 -10 -121 -50 -83 -104 19 -27 87 -31 122 -6
20 14 22 14 22 0 0 -9 5 -16 10 -16 6 0 10 37 10 90 0 77 -3 93 -20 110 -30
30 -99 27 -130 -5z m130 -95 c0 -63 -67 -107 -115 -76 -29 19 -32 38 -9 60 15
15 31 21 84 29 14 3 28 5 33 6 4 0 7 -8 7 -19z"/>
<path d="M4291 2783 c-1 -69 3 -113 9 -113 6 0 10 34 10 83 0 69 3 87 18 100
10 10 26 17 35 17 9 0 17 5 17 10 0 15 -32 12 -55 -6 -18 -13 -20 -13 -27 3
-3 10 -7 -33 -7 -94z"/>
<path d="M4511 2783 c-1 -69 3 -113 9 -113 6 0 10 34 10 83 0 69 3 87 18 100
10 10 26 17 35 17 9 0 17 5 17 10 0 15 -32 12 -55 -6 -18 -13 -20 -13 -27 3
-3 10 -7 -33 -7 -94z"/>
<path d="M4665 2866 c-45 -45 -41 -147 8 -181 32 -22 99 -19 125 5 23 22 29
40 12 40 -5 0 -10 -5 -10 -11 0 -5 -16 -17 -35 -24 -51 -22 -93 -2 -109 53 -7
22 -6 22 85 22 l92 0 -6 38 c-13 76 -109 111 -162 58z m124 -22 c37 -47 29
-54 -60 -54 -79 0 -80 0 -73 23 12 39 35 57 75 57 29 0 42 -6 58 -26z"/>
<path d="M4870 2780 c0 -60 4 -110 9 -110 5 0 11 39 12 86 4 96 16 114 75 114
49 0 64 -28 64 -122 0 -45 4 -78 10 -78 16 0 12 147 -5 179 -22 44 -80 56
-123 25 -20 -14 -22 -14 -22 0 0 9 -4 16 -10 16 -6 0 -10 -43 -10 -110z"/>
<path d="M5281 2863 c-27 -33 -18 -43 12 -15 26 24 85 30 105 10 7 -7 12 -22
12 -33 0 -19 -8 -23 -62 -31 -49 -7 -65 -14 -81 -35 -17 -24 -18 -30 -6 -55
12 -24 21 -30 57 -32 28 -2 53 3 68 13 21 14 24 14 24 0 0 -8 5 -15 10 -15 6
0 10 37 10 90 0 109 -13 130 -84 130 -36 0 -48 -5 -65 -27z m129 -97 c0 -38
-10 -56 -42 -72 -35 -18 -73 -12 -88 15 -19 37 12 65 85 74 17 2 33 5 38 6 4
0 7 -10 7 -23z"/>
<path d="M5676 2859 c-20 -23 -26 -42 -26 -75 0 -78 30 -113 96 -114 43 0 100
33 88 52 -4 5 -15 2 -28 -10 -30 -28 -51 -33 -86 -21 -31 11 -50 35 -50 63 0
13 14 16 84 16 47 0 87 3 89 8 8 12 -21 86 -40 99 -9 7 -36 13 -59 13 -35 0
-47 -5 -68 -31z m128 -11 c9 -12 16 -30 16 -40 0 -16 -10 -18 -75 -18 -68 0
-75 2 -75 20 0 56 102 84 134 38z"/>
<path d="M5870 2884 c0 -4 16 -26 35 -50 19 -23 35 -47 35 -52 0 -6 -18 -33
-40 -61 -24 -30 -35 -51 -27 -51 8 0 28 20 46 45 18 25 36 45 40 45 4 0 22
-20 40 -45 18 -25 37 -45 42 -45 13 0 5 14 -38 68 l-35 43 34 42 c43 53 52 67
40 67 -5 0 -25 -20 -43 -45 -19 -24 -37 -45 -40 -45 -3 0 -20 20 -39 45 -31
41 -50 56 -50 39z"/>
<path d="M6097 2884 c-11 -11 -8 -302 3 -309 6 -4 10 18 10 60 l0 66 22 -15
c12 -9 39 -16 59 -16 29 0 43 7 63 31 58 69 19 189 -62 189 -21 0 -46 -7 -57
-16 -17 -13 -20 -13 -25 1 -3 9 -9 13 -13 9z m129 -22 c32 -21 44 -90 23 -135
-25 -55 -97 -53 -127 3 -16 32 -9 95 14 121 17 19 69 26 90 11z"/>
<path d="M6353 2866 c-25 -22 -28 -31 -28 -84 0 -50 4 -65 24 -86 33 -35 98
-36 138 -2 15 13 25 28 20 32 -4 4 -17 -2 -30 -13 -31 -28 -52 -34 -85 -22
-26 9 -52 44 -52 69 0 6 40 10 90 10 50 0 90 3 90 8 0 29 -24 84 -43 97 -33
23 -91 19 -124 -9z m119 -13 c10 -9 18 -27 18 -40 0 -22 -3 -23 -75 -23 -83 0
-91 7 -54 54 24 31 81 36 111 9z"/>
<path d="M6571 2783 c-1 -69 3 -113 9 -113 6 0 10 34 10 83 0 69 3 87 18 100
10 10 26 17 35 17 9 0 17 5 17 10 0 15 -32 12 -55 -6 -18 -13 -20 -13 -27 3
-3 10 -7 -33 -7 -94z"/>
<path d="M6710 2780 c0 -67 4 -110 10 -110 6 0 10 43 10 110 0 67 -4 110 -10
110 -6 0 -10 -43 -10 -110z"/>
<path d="M6815 2866 c-45 -45 -41 -147 8 -181 32 -22 99 -19 125 5 23 22 29
40 12 40 -5 0 -10 -5 -10 -11 0 -5 -16 -17 -35 -24 -51 -22 -93 -2 -109 53 -7
22 -6 22 85 22 l92 0 -6 38 c-13 76 -109 111 -162 58z m124 -22 c37 -47 29
-54 -60 -54 -79 0 -80 0 -73 23 12 39 35 57 75 57 29 0 42 -6 58 -26z"/>
<path d="M7028 2884 c-11 -11 -10 -214 1 -214 5 0 10 36 12 79 5 92 22 121 74
121 52 0 65 -24 65 -118 0 -48 4 -82 10 -82 6 0 10 35 10 85 0 78 -2 88 -25
110 -28 29 -79 33 -112 10 -19 -14 -22 -13 -25 1 -2 9 -6 12 -10 8z"/>
<path d="M7276 2859 c-41 -48 -34 -140 13 -176 27 -21 98 -16 122 8 24 24 17
39 -8 17 -37 -33 -108 -23 -123 18 -19 49 -7 115 24 136 22 15 76 8 96 -12 13
-13 21 -16 26 -8 13 20 -35 48 -81 48 -36 0 -48 -5 -69 -31z"/>
<path d="M7495 2866 c-45 -45 -41 -147 8 -181 32 -22 99 -19 125 5 23 22 29
40 12 40 -5 0 -10 -5 -10 -11 0 -5 -16 -17 -35 -24 -51 -22 -93 -2 -109 53 -7
22 -6 22 85 22 l92 0 -6 38 c-13 76 -109 111 -162 58z m124 -22 c37 -47 29
-54 -60 -54 -79 0 -80 0 -73 23 12 39 35 57 75 57 29 0 42 -6 58 -26z"/>
<path d="M2730 2340 c-11 -11 -20 -29 -20 -40 0 -13 -7 -20 -20 -20 -11 0 -20
-4 -20 -10 0 -5 9 -10 20 -10 19 0 20 -7 20 -100 0 -60 4 -100 10 -100 6 0 10
40 10 100 l0 100 50 0 50 0 0 -100 c0 -60 4 -100 10 -100 6 0 10 40 10 100 l0
100 36 0 c21 0 33 4 29 10 -3 6 -19 10 -36 10 -22 0 -29 5 -29 19 0 23 17 38
50 43 22 4 23 5 7 13 -29 12 -67 -11 -73 -45 -6 -28 -9 -30 -55 -30 -41 0 -49
3 -49 18 0 23 19 42 42 42 10 0 18 5 18 10 0 17 -39 11 -60 -10z"/>
<path d="M3480 2210 c0 -93 4 -150 10 -150 6 0 10 57 10 150 0 93 -4 150 -10
150 -6 0 -10 -57 -10 -150z"/>
<path d="M1200 2341 c0 -6 5 -13 10 -16 6 -3 10 1 10 9 0 9 -4 16 -10 16 -5 0
-10 -4 -10 -9z"/>
<path d="M1440 2205 c0 -153 15 -200 21 -66 5 92 22 121 74 121 52 0 65 -24
65 -118 0 -48 4 -82 10 -82 6 0 10 35 10 85 0 78 -2 88 -25 110 -28 29 -79 33
-113 9 -22 -15 -22 -15 -22 35 0 28 -4 51 -10 51 -6 0 -10 -55 -10 -145z"/>
<path d="M4300 2205 c0 -90 4 -145 10 -145 6 0 10 7 10 17 0 15 2 15 19 -1 13
-12 32 -16 62 -14 37 3 47 8 67 38 28 42 26 106 -5 149 -24 32 -82 40 -119 16
l-24 -15 0 50 c0 27 -4 50 -10 50 -6 0 -10 -55 -10 -145z m146 34 c28 -31 26
-111 -3 -140 -26 -27 -77 -29 -101 -5 -26 25 -24 133 2 152 29 21 80 18 102
-7z"/>
<path d="M5010 2205 c0 -90 4 -145 10 -145 6 0 10 23 10 50 0 28 4 50 8 50 4
0 30 -22 57 -50 27 -27 57 -50 67 -50 15 0 -26 43 -101 107 -3 2 20 28 49 58
30 30 48 55 41 55 -7 0 -34 -22 -59 -50 -25 -27 -49 -50 -54 -50 -4 0 -8 38
-8 85 0 50 -4 85 -10 85 -6 0 -10 -55 -10 -145z"/>
<path d="M5210 2341 c0 -6 5 -13 10 -16 6 -3 10 1 10 9 0 9 -4 16 -10 16 -5 0
-10 -4 -10 -9z"/>
<path d="M1310 2310 c0 -25 -4 -30 -25 -30 -14 0 -25 -4 -25 -10 0 -5 11 -10
25 -10 25 0 25 -1 25 -84 0 -64 4 -88 16 -100 17 -18 74 -22 74 -6 0 6 -13 10
-29 10 -36 0 -41 12 -41 106 l0 74 35 0 c19 0 35 5 35 10 0 6 -16 10 -35 10
-32 0 -35 2 -35 30 0 17 -4 30 -10 30 -5 0 -10 -13 -10 -30z"/>
<path d="M3340 2310 c0 -23 -5 -30 -19 -30 -11 0 -23 -4 -26 -10 -4 -6 5 -10
19 -10 25 0 26 -1 26 -72 0 -91 14 -122 58 -126 18 -2 32 1 32 7 0 6 -11 11
-25 11 -34 0 -45 27 -45 109 l0 71 35 0 c19 0 35 5 35 10 0 6 -16 10 -35 10
-32 0 -35 2 -35 30 0 17 -4 30 -10 30 -5 0 -10 -13 -10 -30z"/>
<path d="M887 2228 c9 -29 23 -77 32 -107 9 -30 21 -56 27 -58 6 -2 23 38 39
89 l28 93 30 -92 c16 -51 33 -93 38 -93 8 0 69 185 69 209 0 32 -19 -6 -40
-79 -12 -44 -26 -80 -30 -80 -4 0 -18 37 -31 82 -13 45 -29 83 -34 85 -6 2
-23 -39 -39 -89 l-28 -93 -30 93 c-16 50 -33 92 -38 92 -5 0 -2 -24 7 -52z"/>
<path d="M1200 2170 c0 -67 4 -110 10 -110 6 0 10 43 10 110 0 67 -4 110 -10
110 -6 0 -10 -43 -10 -110z"/>
<path d="M1783 2256 c-25 -22 -28 -31 -28 -84 0 -50 4 -65 24 -86 29 -30 93
-36 128 -11 49 34 53 136 8 181 -33 33 -94 33 -132 0z m121 -15 c23 -26 30
-89 14 -121 -20 -36 -58 -52 -95 -39 -53 18 -71 103 -32 153 26 33 86 37 113
7z"/>
<path d="M1990 2211 c0 -78 14 -127 40 -141 29 -15 81 -12 102 7 17 15 18 15
18 0 0 -10 5 -17 10 -17 6 0 10 43 10 110 0 67 -4 110 -10 110 -6 0 -10 -33
-10 -78 0 -101 -14 -124 -73 -120 -54 4 -67 29 -67 126 0 41 -4 72 -10 72 -6
0 -10 -30 -10 -69z"/>
<path d="M2238 2274 c-11 -10 -10 -214 1 -214 5 0 11 36 13 80 5 84 23 120 60
120 10 0 18 5 18 10 0 15 -33 12 -57 -5 -19 -14 -22 -13 -25 1 -2 9 -6 12 -10
8z"/>
<path d="M2475 2256 c-45 -45 -41 -147 8 -181 32 -22 99 -19 125 5 23 22 29
40 12 40 -5 0 -10 -5 -10 -11 0 -5 -16 -17 -35 -24 -51 -22 -93 -2 -109 53 -7
22 -6 22 85 22 l92 0 -6 38 c-13 76 -109 111 -162 58z m124 -22 c37 -47 29
-54 -60 -54 -79 0 -80 0 -73 23 12 39 35 57 75 57 29 0 42 -6 58 -26z"/>
<path d="M2965 2256 c-30 -30 -40 -84 -25 -130 15 -46 44 -66 96 -66 59 0 94
41 94 112 0 41 -5 54 -29 79 -39 38 -100 41 -136 5z m124 -22 c39 -50 21 -135
-32 -153 -61 -22 -113 31 -102 104 8 54 30 75 76 75 29 0 42 -6 58 -26z"/>
<path d="M3180 2170 c0 -67 4 -110 10 -110 6 0 10 33 10 80 0 67 3 83 20 100
11 11 29 20 40 20 11 0 20 5 20 10 0 15 -33 12 -58 -6 -20 -14 -22 -14 -22 0
0 9 -4 16 -10 16 -6 0 -10 -43 -10 -110z"/>
<path d="M3593 2265 c-31 -22 -47 -85 -33 -135 6 -21 20 -46 33 -55 45 -32
147 -9 147 32 0 13 -5 12 -24 -6 -34 -32 -92 -33 -117 -2 -11 13 -19 32 -19
42 0 17 8 19 85 19 l85 0 0 29 c0 17 -11 42 -26 60 -21 26 -33 31 -68 31 -23
0 -51 -7 -63 -15z m103 -13 c13 -8 34 -46 34 -61 0 -7 -29 -11 -75 -11 -65 0
-75 2 -75 18 0 36 29 62 68 62 20 0 42 -4 48 -8z"/>
<path d="M3817 2262 c-21 -23 -22 -56 -3 -71 8 -6 38 -19 67 -29 46 -15 54
-21 54 -42 0 -50 -86 -60 -122 -14 -7 9 -13 11 -17 5 -14 -22 33 -51 82 -51
56 0 82 20 82 63 0 30 -16 41 -91 63 -46 14 -50 18 -47 42 3 24 8 27 45 30 32
2 47 -2 62 -17 12 -12 23 -21 26 -21 12 0 4 21 -15 40 -27 27 -100 28 -123 2z"/>
<path d="M4027 2262 c-21 -23 -22 -56 -3 -71 8 -6 38 -19 67 -29 46 -15 54
-21 54 -42 0 -50 -86 -60 -122 -14 -7 9 -13 11 -17 5 -14 -22 33 -51 82 -51
56 0 82 20 82 63 0 30 -16 41 -91 63 -46 14 -50 18 -47 42 3 24 8 27 45 30 32
2 47 -2 62 -17 12 -12 23 -21 26 -21 12 0 4 21 -15 40 -27 27 -100 28 -123 2z"/>
<path d="M4556 2249 c-41 -48 -34 -140 13 -176 23 -17 92 -16 118 2 33 23 47
81 34 133 -14 51 -43 72 -97 72 -35 0 -47 -5 -68 -31z m138 -33 c17 -36 18
-43 5 -80 -18 -51 -52 -71 -98 -55 -17 6 -36 19 -41 29 -21 40 -7 121 24 143
6 4 29 6 51 5 36 -3 42 -7 59 -42z"/>
<path d="M4795 2256 c-30 -30 -40 -84 -25 -130 15 -46 44 -66 96 -66 59 0 94
41 94 112 0 41 -5 54 -29 79 -39 38 -100 41 -136 5z m124 -22 c39 -50 21 -135
-32 -153 -61 -22 -113 31 -102 104 8 54 30 75 76 75 29 0 42 -6 58 -26z"/>
<path d="M5210 2170 c0 -67 4 -110 10 -110 6 0 10 43 10 110 0 67 -4 110 -10
110 -6 0 -10 -43 -10 -110z"/>
<path d="M5298 2274 c-11 -11 -10 -214 1 -214 5 0 10 36 12 79 5 92 22 121 74
121 52 0 65 -24 65 -118 0 -48 4 -82 10 -82 6 0 10 35 10 85 0 78 -2 88 -25
110 -28 29 -79 33 -112 10 -19 -14 -22 -13 -25 1 -2 9 -6 12 -10 8z"/>
<path d="M5549 2254 c-20 -21 -24 -36 -24 -84 0 -48 4 -63 24 -84 29 -30 84
-35 119 -10 21 14 22 14 22 -5 0 -27 -19 -74 -33 -83 -20 -13 -72 -9 -93 7
-24 18 -35 19 -28 1 12 -31 95 -47 134 -26 10 5 23 24 29 41 14 40 15 269 1
269 -5 0 -10 -7 -10 -16 0 -14 -2 -14 -22 0 -35 25 -90 20 -119 -10z m120 -20
c55 -70 -8 -187 -83 -153 -54 25 -62 138 -12 171 26 18 75 8 95 -18z"/>
<path d="M5850 2120 c0 -100 4 -160 10 -160 6 0 10 29 10 67 0 63 1 65 18 50
11 -10 35 -17 60 -17 32 0 45 6 61 26 41 53 35 146 -12 179 -28 19 -77 19
-105 -1 -20 -14 -22 -14 -22 0 0 9 -4 16 -10 16 -6 0 -10 -60 -10 -160z m147
113 c25 -38 22 -108 -5 -135 -29 -29 -80 -28 -104 1 -23 29 -24 108 -2 139 23
34 88 31 111 -5z"/>
<path d="M6088 2274 c-11 -10 -10 -214 1 -214 5 0 11 36 13 80 5 84 23 120 60
120 10 0 18 5 18 10 0 15 -33 12 -57 -5 -19 -14 -22 -13 -25 1 -2 9 -6 12 -10
8z"/>
<path d="M6243 2256 c-25 -22 -28 -31 -28 -84 0 -50 4 -65 24 -86 29 -30 93
-36 128 -11 49 34 53 136 8 181 -33 33 -94 33 -132 0z m121 -15 c23 -26 30
-89 14 -121 -20 -36 -58 -52 -95 -39 -53 18 -71 103 -32 153 26 33 86 37 113
7z"/>
<path d="M6476 2249 c-41 -48 -34 -140 13 -176 27 -21 98 -16 122 8 24 24 17
39 -8 17 -37 -33 -108 -23 -123 18 -19 49 -7 115 24 136 22 15 76 8 96 -12 13
-13 21 -16 26 -8 13 20 -35 48 -81 48 -36 0 -48 -5 -69 -31z"/>
<path d="M6695 2256 c-45 -45 -41 -147 8 -181 32 -22 99 -19 125 5 23 22 29
40 12 40 -5 0 -10 -5 -10 -11 0 -5 -16 -17 -35 -24 -51 -22 -93 -2 -109 53 -7
22 -6 22 85 22 l92 0 -6 38 c-13 76 -109 111 -162 58z m124 -22 c37 -47 29
-54 -60 -54 -79 0 -80 0 -73 23 12 39 35 57 75 57 29 0 42 -6 58 -26z"/>
<path d="M6922 2264 c-24 -17 -29 -56 -9 -71 6 -6 35 -18 64 -27 62 -21 79
-37 64 -64 -21 -38 -75 -38 -118 1 -20 17 -23 18 -23 4 0 -45 112 -65 150 -27
42 42 19 76 -68 105 -29 9 -56 23 -59 31 -16 43 73 61 114 22 32 -30 41 -15
10 16 -31 30 -89 35 -125 10z"/>
<path d="M7138 2268 c-21 -17 -30 -49 -19 -66 5 -8 37 -24 72 -36 48 -16 65
-27 67 -42 7 -48 -86 -66 -119 -25 -12 15 -20 18 -25 10 -13 -22 35 -49 86
-49 51 0 80 20 80 58 0 30 -23 49 -84 66 -57 17 -69 30 -54 59 13 25 83 23
105 -3 10 -11 21 -20 25 -20 15 0 8 19 -14 40 -25 23 -95 28 -120 8z"/>
<path d="M7330 2075 c0 -8 7 -15 15 -15 8 0 15 7 15 15 0 8 -7 15 -15 15 -8 0
-15 -7 -15 -15z"/>
<path d="M1130 1284 c-112 -30 -201 -108 -241 -213 -31 -78 -30 -185 1 -266
31 -81 113 -163 195 -196 l60 -24 770 0 770 0 60 24 c41 17 78 42 116 80 73
73 102 146 102 251 0 105 -29 178 -102 251 -38 38 -75 63 -116 80 l-60 24
-750 2 c-637 2 -758 0 -805 -13z m220 -269 c0 -11 -12 -15 -45 -15 -41 0 -45
-2 -45 -25 0 -22 4 -25 35 -25 19 0 35 -4 35 -10 0 -5 -16 -10 -35 -10 -32 0
-35 -2 -35 -30 0 -29 2 -30 45 -30 25 0 45 -4 45 -10 0 -6 -27 -10 -60 -10
l-60 0 0 83 c0 46 3 87 7 90 3 4 30 7 60 7 40 0 53 -4 53 -15z m320 -75 c0
-73 -3 -90 -15 -90 -12 0 -15 17 -15 90 0 73 3 90 15 90 12 0 15 -17 15 -90z
m568 70 c25 -24 29 -50 7 -50 -8 0 -15 7 -15 15 0 26 -49 38 -76 20 -26 -17
-33 -70 -14 -106 14 -26 66 -26 82 1 15 23 38 27 38 6 0 -19 -48 -56 -72 -56
-52 0 -87 39 -88 98 0 79 83 123 138 72z m-638 -40 c47 -47 10 -138 -51 -126
-27 5 -29 3 -29 -24 0 -17 -4 -30 -10 -30 -6 0 -10 38 -10 94 0 90 1 95 23 99
45 9 57 7 77 -13z m183 9 c30 -16 37 -28 37 -66 0 -37 -29 -73 -59 -73 -34 0
-71 38 -71 75 0 24 7 39 26 54 31 24 37 25 67 10z m235 -5 c12 -8 22 -26 22
-40 0 -22 -4 -24 -51 -24 -52 0 -61 -12 -27 -34 12 -7 24 -6 42 4 35 18 47 3
17 -21 -48 -39 -105 -8 -105 56 0 62 54 93 102 59z m353 6 c15 -9 19 -22 19
-71 0 -42 -4 -59 -12 -58 -7 1 -26 -1 -41 -6 -29 -8 -67 15 -67 41 0 18 40 44
67 44 14 0 23 6 23 15 0 9 -9 15 -25 15 -14 0 -25 -4 -25 -10 0 -5 -7 -10 -15
-10 -22 0 -18 17 7 34 26 19 42 20 69 6z m210 0 c10 -6 19 -17 19 -25 0 -17
-16 -20 -25 -5 -9 14 -58 13 -53 -1 2 -7 19 -17 38 -23 30 -9 35 -16 35 -41 0
-40 -41 -56 -79 -31 -29 18 -34 36 -11 36 8 0 15 -4 15 -10 0 -13 47 -13 55 0
3 6 -14 19 -39 30 -51 21 -58 41 -24 64 26 19 42 20 69 6z m-1175 -21 l22 -21
11 21 c7 12 21 21 33 21 l21 0 -20 -22 c-33 -38 -34 -45 -7 -77 23 -27 24 -31
7 -31 -10 0 -24 9 -31 21 l-13 21 -23 -21 c-36 -34 -52 -26 -23 12 l24 32 -25
33 c-28 37 -12 45 24 11z m504 13 c0 -4 -10 -12 -22 -17 -19 -8 -24 -19 -26
-57 -5 -71 -22 -58 -22 15 l0 64 35 1 c19 1 35 -2 35 -6z m570 -2 c0 -5 -6
-10 -14 -10 -18 0 -26 -22 -26 -71 0 -28 -4 -39 -15 -39 -12 0 -15 14 -15 65
l0 65 35 0 c19 0 35 -4 35 -10z"/>
<path d="M1532 948 c-29 -29 -4 -84 35 -76 28 5 26 82 -2 86 -11 1 -26 -3 -33
-10z"/>
<path d="M1724 947 c-3 -9 -4 -28 -2 -44 3 -24 7 -28 33 -28 28 0 30 2 30 40
0 36 -3 40 -28 43 -17 2 -29 -2 -33 -11z"/>
<path d="M1950 945 c-11 -13 -8 -15 25 -15 25 0 35 4 33 13 -7 18 -43 20 -58
2z"/>
<path d="M2312 898 c-19 -19 -14 -28 13 -28 14 0 29 8 35 20 9 17 8 20 -13 20
-12 0 -28 -5 -35 -12z"/>
</g>
</svg>
